font.ufo
<glyph name="exclam" format="2">
  <advance width="280"/>
  <unicode hex="0021"/>
  <outline>
    <contour>
      <point x="104" y="199" type="line"/>
      <point x="175" y="199" type="line"/>
      <point x="175" y="730" type="line"/>
      <point x="104" y="730" type="line"/>
    </contour>
    <contour>
      <point x="96" y="0" type="line"/>
      <point x="184" y="0" type="line"/>
      <point x="184" y="94" type="line"/>
      <point x="96" y="94" type="line"/>
    </contour>
  </outline>
</glyph>
<glyph name="numbersign" format="2">
  <advance width="678"/>
  <unicode hex="0023"/>
  <outline>
    <contour>
      <point x="134" y="0" type="line"/>
      <point x="198" y="0" type="line"/>
      <point x="312" y="730" type="line"/>
      <point x="248" y="730" type="line"/>
    </contour>
    <contour>
      <point x="367" y="0" type="line"/>
      <point x="431" y="0" type="line"/>
      <point x="544" y="730" type="line"/>
      <point x="481" y="730" type="line"/>
    </contour>
    <contour>
      <point x="38" y="216" type="line"/>
      <point x="605" y="216" type="line"/>
      <point x="605" y="269" type="line"/>
      <point x="38" y="269" type="line"/>
    </contour>
    <contour>
      <point x="73" y="461" type="line"/>
      <point x="641" y="461" type="line"/>
      <point x="641" y="514" type="line"/>
      <point x="73" y="514" type="line"/>
    </contour>
  </outline>
</glyph>
<glyph name="dollar" format="2">
  <advance width="655"/>
  <unicode hex="0024"/>
  <outline>
    <contour>
      <point x="328" y="1" type="curve" smooth="yes"/>
      <point x="495" y="1"/>
      <point x="590" y="83"/>
      <point x="590" y="201" type="curve" smooth="yes"/>
      <point x="590" y="315"/>
      <point x="503" y="390"/>
      <point x="362" y="403" type="curve" smooth="yes"/>
      <point x="296" y="409" type="line" smooth="yes"/>
      <point x="204" y="418"/>
      <point x="156" y="464"/>
      <point x="156" y="535" type="curve" smooth="yes"/>
      <point x="156" y="609"/>
      <point x="212" y="668"/>
      <point x="324" y="668" type="curve" smooth="yes"/>
      <point x="445" y="668"/>
      <point x="495" y="593"/>
      <point x="495" y="512" type="curve"/>
      <point x="561" y="512" type="line"/>
      <point x="561" y="641"/>
      <point x="476" y="729"/>
      <point x="324" y="729" type="curve" smooth="yes"/>
      <point x="174" y="729"/>
      <point x="89" y="651"/>
      <point x="89" y="535" type="curve" smooth="yes"/>
      <point x="89" y="420"/>
      <point x="166" y="358"/>
      <point x="289" y="346" type="curve" smooth="yes"/>
      <point x="355" y="340" type="line" smooth="yes"/>
      <point x="465" y="330"/>
      <point x="522" y="275"/>
      <point x="522" y="201" type="curve" smooth="yes"/>
      <point x="522" y="122"/>
      <point x="459" y="62"/>
      <point x="328" y="62" type="curve" smooth="yes"/>
      <point x="183" y="62"/>
      <point x="128" y="140"/>
      <point x="128" y="227" type="curve"/>
      <point x="62" y="227" type="line"/>
      <point x="62" y="92"/>
      <point x="152" y="1"/>
    </contour>
    <contour>
      <point x="296" y="-129" type="line"/>
      <point x="359" y="-129" type="line"/>
      <point x="359" y="17" type="line"/>
      <point x="296" y="17" type="line"/>
    </contour>
    <contour>
      <point x="292" y="692" type="line"/>
      <point x="355" y="692" type="line"/>
      <point x="355" y="827" type="line"/>
      <point x="292" y="827" type="line"/>
    </contour>
  </outline>
</glyph>
<glyph name="percent" format="2">
  <advance width="833"/>
  <unicode hex="0025"/>
  <outline>
    <contour>
      <point x="247" y="0" type="line"/>
      <point x="304" y="0" type="line"/>
      <point x="588" y="730" type="line"/>
      <point x="531" y="730" type="line"/>
    </contour>
    <contour>
      <point x="198" y="343" type="curve" smooth="yes"/>
      <point x="306" y="343"/>
      <point x="354" y="427"/>
      <point x="354" y="530" type="curve" smooth="yes"/>
      <point x="354" y="551" type="line" smooth="yes"/>
      <point x="354" y="658"/>
      <point x="304" y="738"/>
      <point x="198" y="738" type="curve" smooth="yes"/>
      <point x="93" y="738"/>
      <point x="43" y="658"/>
      <point x="43" y="551" type="curve" smooth="yes"/>
      <point x="43" y="530" type="line" smooth="yes"/>
      <point x="43" y="427"/>
      <point x="90" y="343"/>
    </contour>
    <contour>
      <point x="198" y="393" type="curve" smooth="yes"/>
      <point x="130" y="393"/>
      <point x="95" y="445"/>
      <point x="95" y="541" type="curve" smooth="yes"/>
      <point x="95" y="638"/>
      <point x="130" y="689"/>
      <point x="198" y="689" type="curve" smooth="yes"/>
      <point x="266" y="689"/>
      <point x="301" y="638"/>
      <point x="301" y="540" type="curve" smooth="yes"/>
      <point x="301" y="444"/>
      <point x="267" y="393"/>
    </contour>
    <contour>
      <point x="635" y="-8" type="curve" smooth="yes"/>
      <point x="743" y="-8"/>
      <point x="790" y="76"/>
      <point x="790" y="179" type="curve" smooth="yes"/>
      <point x="790" y="200" type="line" smooth="yes"/>
      <point x="790" y="307"/>
      <point x="740" y="387"/>
      <point x="635" y="387" type="curve" smooth="yes"/>
      <point x="529" y="387"/>
      <point x="479" y="307"/>
      <point x="479" y="200" type="curve" smooth="yes"/>
      <point x="479" y="179" type="line" smooth="yes"/>
      <point x="479" y="76"/>
      <point x="527" y="-8"/>
    </contour>
    <contour>
      <point x="635" y="41" type="curve" smooth="yes"/>
      <point x="566" y="41"/>
      <point x="532" y="94"/>
      <point x="532" y="189" type="curve" smooth="yes"/>
      <point x="532" y="287"/>
      <point x="567" y="337"/>
      <point x="635" y="337" type="curve" smooth="yes"/>
      <point x="703" y="337"/>
      <point x="738" y="287"/>
      <point x="738" y="189" type="curve" smooth="yes"/>
      <point x="738" y="93"/>
      <point x="703" y="41"/>
    </contour>
  </outline>
</glyph>
<glyph name="quotesingle" format="2">
  <advance width="260"/>
  <unicode hex="0027"/>
  <outline>
    <contour>
      <point x="100" y="470" type="line"/>
      <point x="161" y="470" type="line"/>
      <point x="161" y="730" type="line"/>
      <point x="100" y="730" type="line"/>
    </contour>
  </outline>
</glyph>
<glyph name="parenleft" format="2">
  <advance width="368"/>
  <unicode hex="0028"/>
  <outline>
    <contour>
      <point x="266" y="-182" type="curve"/>
      <point x="346" y="-182" type="line"/>
      <point x="222" y="-42"/>
      <point x="153" y="100"/>
      <point x="153" y="301" type="curve" smooth="yes"/>
      <point x="153" y="500"/>
      <point x="223" y="640"/>
      <point x="346" y="776" type="curve"/>
      <point x="266" y="776" type="line"/>
      <point x="159" y="659"/>
      <point x="84" y="511"/>
      <point x="84" y="301" type="curve" smooth="yes"/>
      <point x="84" y="89"/>
      <point x="158" y="-60"/>
    </contour>
  </outline>
</glyph>
<glyph name="comma" format="2">
  <advance width="257"/>
  <unicode hex="002C"/>
  <outline>
    <contour>
      <point x="94" y="-153" type="line"/>
      <point x="182" y="84" type="line"/>
      <point x="123" y="106" type="line"/>
      <point x="37" y="-131" type="line"/>
    </contour>
  </outline>
</glyph>
<glyph name="period" format="2">
  <advance width="257"/>
  <unicode hex="002E"/>
  <outline>
    <contour>
      <point x="84" y="0" type="line"/>
      <point x="173" y="0" type="line"/>
      <point x="173" y="94" type="line"/>
      <point x="84" y="94" type="line"/>
    </contour>
  </outline>
</glyph>
<glyph name="slash" format="2">
  <advance width="319"/>
  <unicode hex="002F"/>
  <outline>
    <contour>
      <point x="25" y="-60" type="line"/>
      <point x="90" y="-60" type="line"/>
      <point x="294" y="780" type="line"/>
      <point x="229" y="780" type="line"/>
    </contour>
  </outline>
</glyph>
<glyph name="five" format="2">
  <advance width="615"/>
  <unicode hex="0035"/>
  <outline>
    <contour>
      <point x="312" y="-17" type="curve" smooth="yes"/>
      <point x="477" y="-17"/>
      <point x="564" y="97"/>
      <point x="564" y="215" type="curve" smooth="yes"/>
      <point x="564" y="229" type="line" smooth="yes"/>
      <point x="564" y="347"/>
      <point x="479" y="461"/>
      <point x="315" y="461" type="curve" smooth="yes"/>
      <point x="243" y="461"/>
      <point x="187" y="436"/>
      <point x="145" y="394" type="curve"/>
      <point x="168" y="389" type="line"/>
      <point x="198" y="693" type="line"/>
      <point x="178" y="669" type="line"/>
      <point x="499" y="669" type="line"/>
      <point x="499" y="730" type="line"/>
      <point x="140" y="730" type="line"/>
      <point x="102" y="347" type="line"/>
      <point x="167" y="347" type="line"/>
      <point x="202" y="382"/>
      <point x="258" y="401"/>
      <point x="312" y="401" type="curve" smooth="yes"/>
      <point x="429" y="401"/>
      <point x="496" y="322"/>
      <point x="496" y="222" type="curve" smooth="yes"/>
      <point x="496" y="121"/>
      <point x="429" y="45"/>
      <point x="312" y="45" type="curve" smooth="yes"/>
      <point x="195" y="45"/>
      <point x="130" y="122"/>
      <point x="130" y="222" type="curve"/>
      <point x="61" y="222" type="line"/>
      <point x="61" y="97"/>
      <point x="148" y="-17"/>
    </contour>
  </outline>
</glyph>
<glyph name="eight" format="2">
  <advance width="628"/>
  <unicode hex="0038"/>
  <outline>
    <contour>
      <point x="314" y="-17" type="curve" smooth="yes"/>
      <point x="471" y="-17"/>
      <point x="574" y="76"/>
      <point x="574" y="200" type="curve" smooth="yes"/>
      <point x="574" y="295"/>
      <point x="508" y="363"/>
      <point x="431" y="386" type="curve"/>
      <point x="431" y="396" type="line"/>
      <point x="493" y="419"/>
      <point x="548" y="471"/>
      <point x="548" y="556" type="curve" smooth="yes"/>
      <point x="548" y="674"/>
      <point x="448" y="748"/>
      <point x="314" y="748" type="curve" smooth="yes"/>
      <point x="180" y="748"/>
      <point x="79" y="674"/>
      <point x="79" y="556" type="curve" smooth="yes"/>
      <point x="79" y="471"/>
      <point x="135" y="419"/>
      <point x="196" y="396" type="curve"/>
      <point x="196" y="386" type="line"/>
      <point x="120" y="363"/>
      <point x="54" y="296"/>
      <point x="54" y="200" type="curve" smooth="yes"/>
      <point x="54" y="76"/>
      <point x="156" y="-17"/>
    </contour>
    <contour>
      <point x="314" y="44" type="curve" smooth="yes"/>
      <point x="192" y="44"/>
      <point x="123" y="110"/>
      <point x="123" y="203" type="curve" smooth="yes"/>
      <point x="123" y="296"/>
      <point x="192" y="362"/>
      <point x="314" y="362" type="curve" smooth="yes"/>
      <point x="436" y="362"/>
      <point x="505" y="296"/>
      <point x="505" y="203" type="curve" smooth="yes"/>
      <point x="505" y="110"/>
      <point x="435" y="44"/>
    </contour>
    <contour>
      <point x="314" y="418" type="curve" smooth="yes"/>
      <point x="215" y="418"/>
      <point x="148" y="465"/>
      <point x="148" y="554" type="curve" smooth="yes"/>
      <point x="148" y="640"/>
      <point x="213" y="687"/>
      <point x="314" y="687" type="curve" smooth="yes"/>
      <point x="414" y="687"/>
      <point x="479" y="641"/>
      <point x="479" y="554" type="curve" smooth="yes"/>
      <point x="479" y="465"/>
      <point x="412" y="418"/>
    </contour>
  </outline>
</glyph>
<glyph name="equal" format="2">
  <advance width="588"/>
  <unicode hex="003D"/>
  <outline>
    <contour>
      <point x="74" y="388" type="line"/>
      <point x="513" y="388" type="line"/>
      <point x="513" y="445" type="line"/>
      <point x="74" y="445" type="line"/>
    </contour>
    <contour>
      <point x="74" y="219" type="line"/>
      <point x="513" y="219" type="line"/>
      <point x="513" y="275" type="line"/>
      <point x="74" y="275" type="line"/>
    </contour>
  </outline>
</glyph>
<glyph name="greater" format="2">
  <advance width="586"/>
  <unicode hex="003E"/>
  <outline>
    <contour>
      <point x="79" y="131" type="line"/>
      <point x="507" y="280" type="line"/>
      <point x="507" y="338" type="line"/>
      <point x="79" y="191" type="line"/>
    </contour>
    <contour>
      <point x="507" y="322" type="line"/>
      <point x="507" y="378" type="line"/>
      <point x="79" y="527" type="line"/>
      <point x="79" y="469" type="line"/>
    </contour>
    <contour>
      <point x="456" y="300" type="line"/>
      <point x="483" y="300" type="line"/>
      <point x="483" y="360" type="line"/>
      <point x="456" y="360" type="line"/>
    </contour>
  </outline>
</glyph>
<glyph name="question" format="2">
  <advance width="547"/>
  <unicode hex="003F"/>
  <outline>
    <contour>
      <point x="211" y="199" type="line"/>
      <point x="281" y="199" type="line"/>
      <point x="282" y="359" type="line"/>
      <point x="259" y="324" type="line"/>
      <point x="412" y="324"/>
      <point x="490" y="418"/>
      <point x="490" y="530" type="curve" smooth="yes"/>
      <point x="490" y="541" type="line" smooth="yes"/>
      <point x="490" y="654"/>
      <point x="406" y="749"/>
      <point x="272" y="749" type="curve" smooth="yes"/>
      <point x="126" y="749"/>
      <point x="44" y="647"/>
      <point x="44" y="524" type="curve"/>
      <point x="111" y="524" type="line"/>
      <point x="111" y="620"/>
      <point x="175" y="687"/>
      <point x="272" y="687" type="curve" smooth="yes"/>
      <point x="361" y="687"/>
      <point x="423" y="628"/>
      <point x="423" y="535" type="curve" smooth="yes"/>
      <point x="423" y="448"/>
      <point x="368" y="384"/>
      <point x="266" y="384" type="curve" smooth="yes"/>
      <point x="211" y="384" type="line"/>
    </contour>
    <contour>
      <point x="202" y="0" type="line"/>
      <point x="290" y="0" type="line"/>
      <point x="290" y="94" type="line"/>
      <point x="202" y="94" type="line"/>
    </contour>
  </outline>
</glyph>
<glyph name="A" format="2">
  <advance width="747"/>
  <unicode hex="0041"/>
  <anchor x="709" y="10" name="ogonek"/>
  <anchor x="369" y="730" name="top"/>
  <outline>
    <contour>
      <point x="34" y="0" type="line"/>
      <point x="105" y="0" type="line"/>
      <point x="357" y="686" type="line"/>
      <point x="316" y="666" type="line"/>
      <point x="418" y="666" type="line"/>
      <point x="379" y="686" type="line"/>
      <point x="640" y="0" type="line"/>
      <point x="713" y="0" type="line"/>
      <point x="434" y="730" type="line"/>
      <point x="304" y="730" type="line"/>
    </contour>
    <contour>
      <point x="175" y="235" type="line"/>
      <point x="567" y="235" type="line"/>
      <point x="543" y="300" type="line"/>
      <point x="199" y="300" type="line"/>
    </contour>
  </outline>
</glyph>
<glyph name="C" format="2">
  <advance width="794"/>
  <unicode hex="0043"/>
  <anchor x="421" y="0" name="bottom"/>
  <anchor x="419" y="730" name="top"/>
  <outline>
    <contour>
      <point x="425" y="-17" type="curve" smooth="yes"/>
      <point x="617" y="-17"/>
      <point x="731" y="96"/>
      <point x="753" y="248" type="curve"/>
      <point x="681" y="248" type="line"/>
      <point x="660" y="119"/>
      <point x="560" y="48"/>
      <point x="425" y="48" type="curve" smooth="yes"/>
      <point x="230" y="48"/>
      <point x="134" y="203"/>
      <point x="134" y="366" type="curve" smooth="yes"/>
      <point x="134" y="539"/>
      <point x="231" y="684"/>
      <point x="419" y="684" type="curve" smooth="yes"/>
      <point x="548" y="684"/>
      <point x="649" y="616"/>
      <point x="667" y="484" type="curve"/>
      <point x="739" y="484" type="line"/>
      <point x="720" y="644"/>
      <point x="603" y="749"/>
      <point x="419" y="749" type="curve" smooth="yes"/>
      <point x="170" y="749"/>
      <point x="62" y="555"/>
      <point x="62" y="376" type="curve" smooth="yes"/>
      <point x="62" y="358" type="line" smooth="yes"/>
      <point x="62" y="191"/>
      <point x="165" y="-17"/>
    </contour>
  </outline>
</glyph>
<glyph name="D" format="2">
  <advance width="797"/>
  <unicode hex="0044"/>
  <anchor x="392" y="0" name="bottom"/>
  <anchor x="205" y="365" name="center"/>
  <anchor x="382" y="730" name="top"/>
  <outline>
    <contour>
      <point x="167" y="-4" type="line"/>
      <point x="363" y="-4" type="line" smooth="yes"/>
      <point x="626" y="-4"/>
      <point x="745" y="183"/>
      <point x="745" y="357" type="curve" smooth="yes"/>
      <point x="745" y="375" type="line" smooth="yes"/>
      <point x="745" y="554"/>
      <point x="623" y="733"/>
      <point x="363" y="733" type="curve" smooth="yes"/>
      <point x="167" y="733" type="line"/>
      <point x="167" y="668" type="line"/>
      <point x="370" y="668" type="line" smooth="yes"/>
      <point x="568" y="668"/>
      <point x="673" y="535"/>
      <point x="673" y="366" type="curve" smooth="yes"/>
      <point x="673" y="203"/>
      <point x="570" y="62"/>
      <point x="370" y="62" type="curve" smooth="yes"/>
      <point x="167" y="62" type="line"/>
    </contour>
    <contour>
      <point x="116" y="-4" type="line"/>
      <point x="187" y="-4" type="line"/>
      <point x="187" y="733" type="line"/>
      <point x="116" y="733" type="line"/>
    </contour>
  </outline>
</glyph>
<glyph name="E" format="2">
  <advance width="603"/>
  <unicode hex="0045"/>
  <anchor x="326" y="0" name="bottom"/>
  <anchor x="536" y="10" name="ogonek"/>
  <anchor x="323" y="730" name="top"/>
  <outline>
    <contour>
      <point x="116" y="0" type="line"/>
      <point x="187" y="0" type="line"/>
      <point x="187" y="730" type="line"/>
      <point x="116" y="730" type="line"/>
    </contour>
    <contour>
      <point x="169" y="0" type="line"/>
      <point x="536" y="0" type="line"/>
      <point x="536" y="64" type="line"/>
      <point x="169" y="64" type="line"/>
    </contour>
    <contour>
      <point x="169" y="339" type="line"/>
      <point x="502" y="339" type="line"/>
      <point x="502" y="403" type="line"/>
      <point x="169" y="403" type="line"/>
    </contour>
    <contour>
      <point x="169" y="666" type="line"/>
      <point x="525" y="666" type="line"/>
      <point x="525" y="730" type="line"/>
      <point x="169" y="730" type="line"/>
    </contour>
  </outline>
</glyph>
<glyph name="F" format="2">
  <advance width="560"/>
  <unicode hex="0046"/>
  <outline>
    <contour>
      <point x="116" y="0" type="line"/>
      <point x="187" y="0" type="line"/>
      <point x="187" y="730" type="line"/>
      <point x="116" y="730" type="line"/>
    </contour>
    <contour>
      <point x="167" y="339" type="line"/>
      <point x="493" y="341" type="line"/>
      <point x="493" y="405" type="line"/>
      <point x="167" y="404" type="line"/>
    </contour>
    <contour>
      <point x="167" y="666" type="line"/>
      <point x="512" y="666" type="line"/>
      <point x="512" y="730" type="line"/>
      <point x="167" y="730" type="line"/>
    </contour>
  </outline>
</glyph>
<glyph name="I" format="2">
  <advance width="307"/>
  <unicode hex="0049"/>
  <anchor x="153" y="0" name="bottom"/>
  <anchor x="188" y="10" name="ogonek"/>
  <anchor x="153" y="730" name="top"/>
  <anchor x="31" y="730" name="topleft"/>
  <outline>
    <contour>
      <point x="118" y="0" type="line"/>
      <point x="189" y="0" type="line"/>
      <point x="189" y="730" type="line"/>
      <point x="118" y="730" type="line"/>
    </contour>
  </outline>
</glyph>
<glyph name="L" format="2">
  <advance width="538"/>
  <unicode hex="004C"/>
  <anchor x="317" y="0" name="bottom"/>
  <anchor x="152" y="365" name="center"/>
  <anchor x="151" y="730" name="top"/>
  <anchor x="259" y="541" name="topright"/>
  <outline>
    <contour>
      <point x="116" y="0" type="line"/>
      <point x="187" y="0" type="line"/>
      <point x="187" y="730" type="line"/>
      <point x="116" y="730" type="line"/>
    </contour>
    <contour>
      <point x="167" y="0" type="line"/>
      <point x="512" y="0" type="line"/>
      <point x="512" y="64" type="line"/>
      <point x="167" y="64" type="line"/>
    </contour>
  </outline>
</glyph>
<glyph name="M" format="2">
  <advance width="901"/>
  <unicode hex="004D"/>
  <outline>
    <contour>
      <point x="116" y="0" type="line"/>
      <point x="181" y="0" type="line"/>
      <point x="181" y="650" type="line"/>
      <point x="174" y="649" type="line"/>
      <point x="400" y="155" type="line"/>
      <point x="495" y="155" type="line"/>
      <point x="721" y="649" type="line"/>
      <point x="714" y="650" type="line"/>
      <point x="714" y="0" type="line"/>
      <point x="786" y="0" type="line"/>
      <point x="786" y="730" type="line"/>
      <point x="692" y="730" type="line"/>
      <point x="459" y="221" type="line"/>
      <point x="441" y="221" type="line"/>
      <point x="208" y="730" type="line"/>
      <point x="116" y="730" type="line"/>
    </contour>
  </outline>
</glyph>
<glyph name="N" format="2">
  <advance width="838"/>
  <unicode hex="004E"/>
  <anchor x="403" y="0" name="bottom"/>
  <anchor x="437" y="730" name="top"/>
  <outline>
    <contour>
      <point x="116" y="0" type="line"/>
      <point x="183" y="0" type="line"/>
      <point x="183" y="681" type="line"/>
      <point x="163" y="666" type="line"/>
      <point x="195" y="666" type="line"/>
      <point x="601" y="0" type="line"/>
      <point x="722" y="0" type="line"/>
      <point x="722" y="730" type="line"/>
      <point x="653" y="730" type="line"/>
      <point x="653" y="49" type="line"/>
      <point x="673" y="64" type="line"/>
      <point x="641" y="64" type="line"/>
      <point x="236" y="730" type="line"/>
      <point x="116" y="730" type="line"/>
    </contour>
  </outline>
</glyph>
<glyph name="O" format="2">
  <advance width="868"/>
  <unicode hex="004F"/>
  <anchor x="435" y="0" name="bottom"/>
  <anchor x="435" y="365" name="center"/>
  <anchor x="565" y="10" name="ogonek"/>
  <anchor x="435" y="730" name="top"/>
  <outline>
    <contour>
      <point x="435" y="-17" type="curve" smooth="yes"/>
      <point x="686" y="-17"/>
      <point x="807" y="188"/>
      <point x="807" y="358" type="curve" smooth="yes"/>
      <point x="807" y="376" type="line" smooth="yes"/>
      <point x="807" y="556"/>
      <point x="679" y="749"/>
      <point x="435" y="749" type="curve" smooth="yes"/>
      <point x="190" y="749"/>
      <point x="62" y="556"/>
      <point x="62" y="376" type="curve" smooth="yes"/>
      <point x="62" y="358" type="line" smooth="yes"/>
      <point x="62" y="188"/>
      <point x="183" y="-17"/>
    </contour>
    <contour>
      <point x="435" y="48" type="curve" smooth="yes"/>
      <point x="245" y="48"/>
      <point x="134" y="203"/>
      <point x="134" y="366" type="curve" smooth="yes"/>
      <point x="134" y="537"/>
      <point x="248" y="684"/>
      <point x="435" y="684" type="curve" smooth="yes"/>
      <point x="621" y="684"/>
      <point x="734" y="537"/>
      <point x="734" y="366" type="curve" smooth="yes"/>
      <point x="734" y="203"/>
      <point x="624" y="48"/>
    </contour>
  </outline>
</glyph>
<glyph name="P" format="2">
  <advance width="628"/>
  <unicode hex="0050"/>
  <outline>
    <contour>
      <point x="167" y="269" type="line"/>
      <point x="327" y="269" type="line" smooth="yes"/>
      <point x="501" y="269"/>
      <point x="583" y="365"/>
      <point x="583" y="495" type="curve" smooth="yes"/>
      <point x="583" y="508" type="line" smooth="yes"/>
      <point x="583" y="638"/>
      <point x="501" y="733"/>
      <point x="327" y="733" type="curve" smooth="yes"/>
      <point x="167" y="733" type="line"/>
      <point x="167" y="670" type="line"/>
      <point x="338" y="670" type="line" smooth="yes"/>
      <point x="459" y="670"/>
      <point x="511" y="596"/>
      <point x="511" y="501" type="curve" smooth="yes"/>
      <point x="511" y="407"/>
      <point x="459" y="333"/>
      <point x="338" y="333" type="curve" smooth="yes"/>
      <point x="167" y="333" type="line"/>
    </contour>
    <contour>
      <point x="116" y="0" type="line"/>
      <point x="187" y="0" type="line"/>
      <point x="187" y="733" type="line"/>
      <point x="116" y="733" type="line"/>
    </contour>
  </outline>
</glyph>
<glyph name="S" format="2">
  <advance width="698"/>
  <unicode hex="0053"/>
  <anchor x="348" y="0" name="bottom"/>
  <anchor x="348" y="730" name="top"/>
  <outline>
    <contour>
      <point x="349" y="-17" type="curve" smooth="yes"/>
      <point x="522" y="-17"/>
      <point x="628" y="74"/>
      <point x="628" y="202" type="curve" smooth="yes"/>
      <point x="628" y="313"/>
      <point x="542" y="390"/>
      <point x="395" y="403" type="curve" smooth="yes"/>
      <point x="311" y="410" type="line" smooth="yes"/>
      <point x="220" y="418"/>
      <point x="172" y="467"/>
      <point x="172" y="536" type="curve" smooth="yes"/>
      <point x="172" y="615"/>
      <point x="226" y="684"/>
      <point x="348" y="684" type="curve" smooth="yes"/>
      <point x="474" y="684"/>
      <point x="528" y="608"/>
      <point x="528" y="527" type="curve"/>
      <point x="599" y="527" type="line"/>
      <point x="599" y="656"/>
      <point x="506" y="749"/>
      <point x="348" y="749" type="curve" smooth="yes"/>
      <point x="192" y="749"/>
      <point x="101" y="659"/>
      <point x="101" y="536" type="curve" smooth="yes"/>
      <point x="101" y="426"/>
      <point x="180" y="355"/>
      <point x="304" y="344" type="curve" smooth="yes"/>
      <point x="389" y="337" type="line" smooth="yes"/>
      <point x="501" y="327"/>
      <point x="557" y="273"/>
      <point x="557" y="202" type="curve" smooth="yes"/>
      <point x="557" y="115"/>
      <point x="489" y="48"/>
      <point x="349" y="48" type="curve" smooth="yes"/>
      <point x="197" y="48"/>
      <point x="138" y="124"/>
      <point x="138" y="212" type="curve"/>
      <point x="67" y="212" type="line"/>
      <point x="67" y="80"/>
      <point x="164" y="-17"/>
    </contour>
  </outline>
</glyph>
<glyph name="T" format="2">
  <advance width="587"/>
  <unicode hex="0054"/>
  <anchor x="293" y="0" name="bottom"/>
  <anchor x="293" y="365" name="center"/>
  <anchor x="293" y="730" name="top"/>
  <outline>
    <contour>
      <point x="258" y="0" type="line"/>
      <point x="329" y="0" type="line"/>
      <point x="329" y="684" type="line"/>
      <point x="258" y="684" type="line"/>
    </contour>
    <contour>
      <point x="28" y="666" type="line"/>
      <point x="558" y="666" type="line"/>
      <point x="558" y="730" type="line"/>
      <point x="28" y="730" type="line"/>
    </contour>
  </outline>
</glyph>
<glyph name="X" format="2">
  <advance width="682"/>
  <unicode hex="0058"/>
  <outline>
    <contour>
      <point x="19" y="0" type="line"/>
      <point x="97" y="0" type="line"/>
      <point x="329" y="327" type="line"/>
      <point x="343" y="327" type="line"/>
      <point x="576" y="0" type="line"/>
      <point x="656" y="0" type="line"/>
      <point x="380" y="385" type="line"/>
      <point x="380" y="365" type="line"/>
      <point x="640" y="730" type="line"/>
      <point x="562" y="730" type="line"/>
      <point x="349" y="428" type="line"/>
      <point x="336" y="428" type="line"/>
      <point x="126" y="730" type="line"/>
      <point x="46" y="730" type="line"/>
      <point x="297" y="371" type="line"/>
      <point x="298" y="390" type="line"/>
    </contour>
  </outline>
</glyph>
<glyph name="Y" format="2">
  <advance width="649"/>
  <unicode hex="0059"/>
  <anchor x="329" y="0" name="bottom"/>
  <anchor x="322" y="730" name="top"/>
  <outline>
    <contour>
      <point x="257" y="286" type="line"/>
      <point x="401" y="286" type="line"/>
      <point x="623" y="730" type="line"/>
      <point x="553" y="730" type="line"/>
      <point x="354" y="330" type="line"/>
      <point x="385" y="343" type="line"/>
      <point x="276" y="343" type="line"/>
      <point x="307" y="330" type="line"/>
      <point x="97" y="730" type="line"/>
      <point x="23" y="730" type="line"/>
    </contour>
    <contour>
      <point x="294" y="0" type="line"/>
      <point x="364" y="0" type="line"/>
      <point x="364" y="303" type="line"/>
      <point x="294" y="303" type="line"/>
    </contour>
  </outline>
</glyph>
<glyph name="Z" format="2">
  <advance width="657"/>
  <unicode hex="005A"/>
  <anchor x="343" y="0" name="bottom"/>
  <anchor x="332" y="365" name="center"/>
  <anchor x="329" y="730" name="top"/>
  <outline>
    <contour>
      <point x="71" y="0" type="line"/>
      <point x="606" y="0" type="line"/>
      <point x="606" y="61" type="line"/>
      <point x="135" y="61" type="line"/>
      <point x="156" y="43" type="line"/>
      <point x="130" y="89" type="line"/>
      <point x="127" y="61" type="line"/>
      <point x="591" y="638" type="line"/>
      <point x="591" y="730" type="line"/>
      <point x="78" y="730" type="line"/>
      <point x="78" y="669" type="line"/>
      <point x="524" y="669" type="line"/>
      <point x="509" y="684" type="line"/>
      <point x="531" y="643" type="line"/>
      <point x="534" y="669" type="line"/>
      <point x="71" y="92" type="line"/>
    </contour>
  </outline>
</glyph>
<glyph name="underscore" format="2">
  <advance width="569"/>
  <unicode hex="005F"/>
  <outline>
    <contour>
      <point x="0" y="-119" type="line"/>
      <point x="569" y="-119" type="line"/>
      <point x="569" y="-65" type="line"/>
      <point x="0" y="-65" type="line"/>
    </contour>
  </outline>
</glyph>
<glyph name="a" format="2">
  <advance width="567"/>
  <unicode hex="0061"/>
  <anchor x="476" y="10" name="ogonek"/>
  <anchor x="277" y="529" name="top"/>
  <outline>
    <contour>
      <point x="420" y="0" type="line"/>
      <point x="476" y="0" type="line"/>
      <point x="476" y="340" type="line" smooth="yes"/>
      <point x="476" y="476"/>
      <point x="413" y="534"/>
      <point x="253" y="534" type="curve" smooth="yes"/>
      <point x="208" y="534"/>
      <point x="156" y="531"/>
      <point x="115" y="526" type="curve"/>
      <point x="115" y="464" type="line"/>
      <point x="156" y="468"/>
      <point x="220" y="472"/>
      <point x="278" y="472" type="curve" smooth="yes"/>
      <point x="368" y="472"/>
      <point x="408" y="427"/>
      <point x="408" y="348" type="curve" smooth="yes"/>
      <point x="408" y="158" type="line"/>
      <point x="420" y="158" type="line"/>
    </contour>
    <contour>
      <point x="240" y="-14" type="curve" smooth="yes"/>
      <point x="349" y="-14"/>
      <point x="422" y="46"/>
      <point x="430" y="165" type="curve"/>
      <point x="408" y="194" type="line"/>
      <point x="404" y="79"/>
      <point x="327" y="43"/>
      <point x="253" y="43" type="curve" smooth="yes"/>
      <point x="172" y="43"/>
      <point x="121" y="86"/>
      <point x="121" y="154" type="curve" smooth="yes"/>
      <point x="121" y="221"/>
      <point x="168" y="266"/>
      <point x="253" y="266" type="curve" smooth="yes"/>
      <point x="415" y="266" type="line"/>
      <point x="415" y="320" type="line"/>
      <point x="258" y="320" type="line" smooth="yes"/>
      <point x="127" y="320"/>
      <point x="52" y="260"/>
      <point x="52" y="155" type="curve" smooth="yes"/>
      <point x="52" y="47"/>
      <point x="128" y="-14"/>
    </contour>
  </outline>
</glyph>
<glyph name="b" format="2">
  <advance width="683"/>
  <unicode hex="0062"/>
  <outline>
    <contour>
      <point x="369" y="-17" type="curve" smooth="yes"/>
      <point x="530" y="-17"/>
      <point x="627" y="116"/>
      <point x="627" y="259" type="curve" smooth="yes"/>
      <point x="627" y="272" type="line" smooth="yes"/>
      <point x="627" y="418"/>
      <point x="530" y="546"/>
      <point x="373" y="546" type="curve" smooth="yes"/>
      <point x="240" y="546"/>
      <point x="144" y="454"/>
      <point x="140" y="297" type="curve"/>
      <point x="169" y="363" type="line"/>
      <point x="169" y="730" type="line"/>
      <point x="99" y="730" type="line"/>
      <point x="99" y="0" type="line"/>
      <point x="154" y="0" type="line"/>
      <point x="154" y="230" type="line"/>
      <point x="132" y="230" type="line"/>
      <point x="136" y="85"/>
      <point x="228" y="-17"/>
    </contour>
    <contour>
      <point x="361" y="45" type="curve" smooth="yes"/>
      <point x="250" y="45"/>
      <point x="165" y="125"/>
      <point x="165" y="238" type="curve" smooth="yes"/>
      <point x="165" y="287" type="line" smooth="yes"/>
      <point x="165" y="404"/>
      <point x="250" y="483"/>
      <point x="361" y="483" type="curve" smooth="yes"/>
      <point x="481" y="483"/>
      <point x="557" y="390"/>
      <point x="557" y="265" type="curve" smooth="yes"/>
      <point x="557" y="144"/>
      <point x="483" y="45"/>
    </contour>
  </outline>
</glyph>
<glyph name="c" format="2">
  <advance width="604"/>
  <unicode hex="0063"/>
  <anchor x="315" y="0" name="bottom"/>
  <anchor x="318" y="528" name="top"/>
  <outline>
    <contour>
      <point x="319" y="-17" type="curve" smooth="yes"/>
      <point x="450" y="-17"/>
      <point x="552" y="61"/>
      <point x="562" y="180" type="curve"/>
      <point x="495" y="180" type="line"/>
      <point x="486" y="106"/>
      <point x="418" y="46"/>
      <point x="319" y="46" type="curve" smooth="yes"/>
      <point x="190" y="46"/>
      <point x="126" y="147"/>
      <point x="126" y="265" type="curve" smooth="yes"/>
      <point x="126" y="386"/>
      <point x="189" y="482"/>
      <point x="318" y="482" type="curve" smooth="yes"/>
      <point x="416" y="482"/>
      <point x="476" y="427"/>
      <point x="488" y="352" type="curve"/>
      <point x="556" y="352" type="line"/>
      <point x="542" y="471"/>
      <point x="448" y="546"/>
      <point x="318" y="546" type="curve" smooth="yes"/>
      <point x="143" y="546"/>
      <point x="56" y="408"/>
      <point x="56" y="272" type="curve" smooth="yes"/>
      <point x="56" y="259" type="line" smooth="yes"/>
      <point x="56" y="125"/>
      <point x="142" y="-17"/>
    </contour>
  </outline>
</glyph>
<glyph name="f" format="2">
  <advance width="375"/>
  <unicode hex="0066"/>
  <outline>
    <contour>
      <point x="113" y="0" type="line"/>
      <point x="181" y="0" type="line"/>
      <point x="181" y="586" type="line" smooth="yes"/>
      <point x="181" y="641"/>
      <point x="212" y="673"/>
      <point x="269" y="673" type="curve" smooth="yes"/>
      <point x="350" y="673" type="line"/>
      <point x="350" y="732" type="line"/>
      <point x="282" y="732" type="line" smooth="yes"/>
      <point x="170" y="732"/>
      <point x="113" y="682"/>
      <point x="113" y="572" type="curve" smooth="yes"/>
    </contour>
    <contour>
      <point x="35" y="470" type="line"/>
      <point x="361" y="470" type="line"/>
      <point x="361" y="524" type="line"/>
      <point x="35" y="524" type="line"/>
    </contour>
  </outline>
</glyph>
<glyph name="h" format="2">
  <advance width="634"/>
  <unicode hex="0068"/>
  <anchor x="321" y="0" name="bottom"/>
  <anchor x="194" y="641" name="center"/>
  <anchor x="134" y="730" name="top"/>
  <outline>
    <contour>
      <point x="99" y="0" type="line"/>
      <point x="169" y="0" type="line"/>
      <point x="169" y="312" type="line" smooth="yes"/>
      <point x="169" y="411"/>
      <point x="230" y="479"/>
      <point x="326" y="479" type="curve" smooth="yes"/>
      <point x="417" y="479"/>
      <point x="473" y="419"/>
      <point x="473" y="323" type="curve" smooth="yes"/>
      <point x="473" y="0" type="line"/>
      <point x="543" y="0" type="line"/>
      <point x="543" y="308" type="line" smooth="yes"/>
      <point x="543" y="455"/>
      <point x="476" y="544"/>
      <point x="347" y="544" type="curve" smooth="yes"/>
      <point x="344" y="544" type="line" smooth="yes"/>
      <point x="210" y="544"/>
      <point x="147" y="447"/>
      <point x="147" y="301" type="curve"/>
      <point x="169" y="322" type="line"/>
      <point x="169" y="730" type="line"/>
      <point x="99" y="730" type="line"/>
    </contour>
  </outline>
</glyph>
<glyph name="l" format="2">
  <advance width="271"/>
  <unicode hex="006C"/>
  <anchor x="138" y="0" name="bottom"/>
  <anchor x="138" y="480" name="center"/>
  <anchor x="106" y="730" name="top"/>
  <anchor x="174" y="534" name="topright"/>
  <outline>
    <contour>
      <point x="103" y="0" type="line"/>
      <point x="173" y="0" type="line"/>
      <point x="173" y="730" type="line"/>
      <point x="103" y="730" type="line"/>
    </contour>
    <contour>
      <point x="26" y="673" type="line"/>
      <point x="173" y="673" type="line"/>
      <point x="173" y="730" type="line"/>
      <point x="26" y="730" type="line"/>
    </contour>
  </outline>
</glyph>
<glyph name="n" format="2">
  <advance width="634"/>
  <unicode hex="006E"/>
  <anchor x="321" y="0" name="bottom"/>
  <anchor x="325" y="528" name="top"/>
  <outline>
    <contour>
      <point x="99" y="0" type="line"/>
      <point x="169" y="0" type="line"/>
      <point x="169" y="318" type="line" smooth="yes"/>
      <point x="169" y="414"/>
      <point x="231" y="479"/>
      <point x="326" y="479" type="curve" smooth="yes"/>
      <point x="419" y="479"/>
      <point x="473" y="417"/>
      <point x="473" y="323" type="curve" smooth="yes"/>
      <point x="473" y="0" type="line"/>
      <point x="543" y="0" type="line"/>
      <point x="543" y="308" type="line" smooth="yes"/>
      <point x="543" y="456"/>
      <point x="477" y="544"/>
      <point x="345" y="544" type="curve" smooth="yes"/>
      <point x="341" y="544" type="line" smooth="yes"/>
      <point x="208" y="544"/>
      <point x="142" y="454"/>
      <point x="142" y="308" type="curve"/>
      <point x="154" y="308" type="line"/>
      <point x="154" y="528" type="line"/>
      <point x="99" y="528" type="line"/>
    </contour>
  </outline>
</glyph>
<glyph name="o" format="2">
  <advance width="667"/>
  <unicode hex="006F"/>
  <note>
o
</note>
  <anchor x="334" y="0" name="bottom"/>
  <anchor x="334" y="264" name="center"/>
  <anchor x="448" y="10" name="ogonek"/>
  <anchor x="334" y="528" name="top"/>
  <outline>
    <contour>
      <point x="334" y="-17" type="curve" smooth="yes"/>
      <point x="513" y="-17"/>
      <point x="611" y="123"/>
      <point x="611" y="258" type="curve" smooth="yes"/>
      <point x="611" y="271" type="line" smooth="yes"/>
      <point x="611" y="409"/>
      <point x="509" y="546"/>
      <point x="334" y="546" type="curve" smooth="yes"/>
      <point x="158" y="546"/>
      <point x="56" y="409"/>
      <point x="56" y="271" type="curve" smooth="yes"/>
      <point x="56" y="258" type="line" smooth="yes"/>
      <point x="56" y="123"/>
      <point x="154" y="-17"/>
    </contour>
    <contour>
      <point x="334" y="46" type="curve" smooth="yes"/>
      <point x="201" y="46"/>
      <point x="126" y="146"/>
      <point x="126" y="264" type="curve" smooth="yes"/>
      <point x="126" y="385"/>
      <point x="204" y="482"/>
      <point x="334" y="482" type="curve" smooth="yes"/>
      <point x="463" y="482"/>
      <point x="541" y="385"/>
      <point x="541" y="264" type="curve" smooth="yes"/>
      <point x="541" y="146"/>
      <point x="466" y="46"/>
    </contour>
  </outline>
</glyph>
<glyph name="p" format="2">
  <advance width="683"/>
  <unicode hex="0070"/>
  <outline>
    <contour>
      <point x="99" y="-200" type="line"/>
      <point x="169" y="-200" type="line"/>
      <point x="169" y="159" type="line"/>
      <point x="134" y="233" type="line"/>
      <point x="140" y="73"/>
      <point x="241" y="-17"/>
      <point x="371" y="-17" type="curve" smooth="yes"/>
      <point x="528" y="-17"/>
      <point x="627" y="116"/>
      <point x="627" y="258" type="curve" smooth="yes"/>
      <point x="627" y="271" type="line" smooth="yes"/>
      <point x="627" y="416"/>
      <point x="530" y="546"/>
      <point x="372" y="546" type="curve" smooth="yes"/>
      <point x="240" y="546"/>
      <point x="142" y="455"/>
      <point x="137" y="299" type="curve"/>
      <point x="154" y="302" type="line"/>
      <point x="154" y="528" type="line"/>
      <point x="99" y="528" type="line"/>
    </contour>
    <contour>
      <point x="361" y="45" type="curve" smooth="yes"/>
      <point x="250" y="45"/>
      <point x="165" y="125"/>
      <point x="165" y="238" type="curve" smooth="yes"/>
      <point x="165" y="287" type="line" smooth="yes"/>
      <point x="165" y="404"/>
      <point x="250" y="483"/>
      <point x="361" y="483" type="curve" smooth="yes"/>
      <point x="482" y="483"/>
      <point x="557" y="388"/>
      <point x="557" y="264" type="curve" smooth="yes"/>
      <point x="557" y="143"/>
      <point x="483" y="45"/>
    </contour>
  </outline>
</glyph>
<glyph name="r" format="2">
  <advance width="402"/>
  <unicode hex="0072"/>
  <note>
r / design an alternative version with a round hook. Look at lettera (based on Olivetti Candia)
</note>
  <anchor x="134" y="0" name="bottom"/>
  <anchor x="224" y="528" name="top"/>
  <outline>
    <contour>
      <point x="99" y="0" type="line"/>
      <point x="169" y="0" type="line"/>
      <point x="169" y="292" type="line" smooth="yes"/>
      <point x="169" y="408"/>
      <point x="230" y="470"/>
      <point x="347" y="470" type="curve" smooth="yes"/>
      <point x="377" y="470" type="line"/>
      <point x="377" y="534" type="line"/>
      <point x="360" y="534" type="line" smooth="yes"/>
      <point x="214" y="534"/>
      <point x="148" y="461"/>
      <point x="148" y="307" type="curve"/>
      <point x="154" y="307" type="line"/>
      <point x="154" y="528" type="line"/>
      <point x="99" y="528" type="line"/>
    </contour>
  </outline>
</glyph>
<glyph name="s" format="2">
  <advance width="528"/>
  <unicode hex="0073"/>
  <note>
s
</note>
  <anchor x="263" y="0" name="bottom"/>
  <anchor x="262" y="528" name="top"/>
  <outline>
    <contour>
      <point x="263" y="-15" type="curve" smooth="yes"/>
      <point x="392" y="-15"/>
      <point x="474" y="54"/>
      <point x="474" y="148" type="curve" smooth="yes"/>
      <point x="474" y="239"/>
      <point x="400" y="287"/>
      <point x="295" y="299" type="curve" smooth="yes"/>
      <point x="235" y="305" type="line" smooth="yes"/>
      <point x="168" y="312"/>
      <point x="138" y="344"/>
      <point x="138" y="388" type="curve" smooth="yes"/>
      <point x="138" y="440"/>
      <point x="179" y="483"/>
      <point x="263" y="483" type="curve" smooth="yes"/>
      <point x="344" y="483"/>
      <point x="387" y="443"/>
      <point x="388" y="391" type="curve"/>
      <point x="454" y="391" type="line"/>
      <point x="453" y="488"/>
      <point x="376" y="544"/>
      <point x="263" y="544" type="curve" smooth="yes"/>
      <point x="147" y="544"/>
      <point x="72" y="481"/>
      <point x="72" y="389" type="curve" smooth="yes"/>
      <point x="72" y="305"/>
      <point x="134" y="256"/>
      <point x="230" y="246" type="curve" smooth="yes"/>
      <point x="291" y="239" type="line" smooth="yes"/>
      <point x="366" y="231"/>
      <point x="408" y="203"/>
      <point x="408" y="149" type="curve" smooth="yes"/>
      <point x="408" y="92"/>
      <point x="360" y="46"/>
      <point x="263" y="46" type="curve" smooth="yes"/>
      <point x="160" y="46"/>
      <point x="120" y="95"/>
      <point x="118" y="148" type="curve"/>
      <point x="52" y="148" type="line"/>
      <point x="54" y="50"/>
      <point x="128" y="-15"/>
    </contour>
  </outline>
</glyph>
<glyph name="t" format="2">
  <advance width="420"/>
  <unicode hex="0074"/>
  <anchor x="237" y="0" name="bottom"/>
  <anchor x="189" y="290" name="center"/>
  <anchor x="145" y="696" name="top"/>
  <anchor x="181" y="576" name="topright"/>
  <outline>
    <contour>
      <point x="287" y="-6" type="curve" smooth="yes"/>
      <point x="371" y="-6" type="line"/>
      <point x="371" y="58" type="line"/>
      <point x="275" y="58" type="line" smooth="yes"/>
      <point x="214" y="58"/>
      <point x="179" y="93"/>
      <point x="179" y="154" type="curve" smooth="yes"/>
      <point x="179" y="696" type="line"/>
      <point x="111" y="696" type="line"/>
      <point x="111" y="165" type="line" smooth="yes"/>
      <point x="111" y="36"/>
      <point x="180" y="-6"/>
    </contour>
    <contour>
      <point x="15" y="474" type="line"/>
      <point x="371" y="474" type="line"/>
      <point x="371" y="528" type="line"/>
      <point x="15" y="528" type="line"/>
    </contour>
  </outline>
</glyph>
<glyph name="u" format="2">
  <advance width="618"/>
  <unicode hex="0075"/>
  <anchor x="518" y="10" name="ogonek"/>
  <anchor x="302" y="528" name="top"/>
  <outline>
    <contour>
      <point x="280" y="-15" type="curve" smooth="yes"/>
      <point x="283" y="-15" type="line" smooth="yes"/>
      <point x="411" y="-15"/>
      <point x="474" y="75"/>
      <point x="474" y="219" type="curve"/>
      <point x="462" y="219" type="line"/>
      <point x="462" y="0" type="line"/>
      <point x="518" y="0" type="line"/>
      <point x="518" y="529" type="line"/>
      <point x="448" y="529" type="line"/>
      <point x="448" y="210" type="line" smooth="yes"/>
      <point x="448" y="113"/>
      <point x="388" y="49"/>
      <point x="296" y="49" type="curve" smooth="yes"/>
      <point x="207" y="49"/>
      <point x="156" y="109"/>
      <point x="156" y="202" type="curve" smooth="yes"/>
      <point x="156" y="529" type="line"/>
      <point x="86" y="529" type="line"/>
      <point x="86" y="216" type="line" smooth="yes"/>
      <point x="86" y="71"/>
      <point x="153" y="-15"/>
    </contour>
  </outline>
</glyph>
<glyph name="x" format="2">
  <advance width="545"/>
  <unicode hex="0078"/>
  <outline>
    <contour>
      <point x="33" y="0" type="line"/>
      <point x="105" y="0" type="line"/>
      <point x="265" y="227" type="line"/>
      <point x="278" y="227" type="line"/>
      <point x="442" y="0" type="line"/>
      <point x="519" y="0" type="line"/>
      <point x="311" y="286" type="line"/>
      <point x="313" y="267" type="line"/>
      <point x="487" y="528" type="line"/>
      <point x="414" y="528" type="line"/>
      <point x="278" y="319" type="line"/>
      <point x="265" y="319" type="line"/>
      <point x="122" y="528" type="line"/>
      <point x="45" y="528" type="line"/>
      <point x="231" y="258" type="line"/>
      <point x="230" y="279" type="line"/>
    </contour>
  </outline>
</glyph>
<glyph name="y" format="2">
  <advance width="531"/>
  <unicode hex="0079"/>
  <anchor x="262" y="528" name="top"/>
  <outline>
    <contour>
      <point x="49" y="-206" type="line"/>
      <point x="111" y="-206" type="line" smooth="yes"/>
      <point x="209" y="-206"/>
      <point x="276" y="-166"/>
      <point x="308" y="-65" type="curve" smooth="yes"/>
      <point x="496" y="528" type="line"/>
      <point x="427" y="528" type="line"/>
      <point x="248" y="-45" type="line" smooth="yes"/>
      <point x="224" y="-121"/>
      <point x="184" y="-142"/>
      <point x="115" y="-142" type="curve" smooth="yes"/>
      <point x="49" y="-142" type="line"/>
    </contour>
    <contour>
      <point x="223" y="13" type="line"/>
      <point x="313" y="13" type="line"/>
      <point x="313" y="73" type="line"/>
      <point x="223" y="73" type="line"/>
    </contour>
    <contour>
      <point x="213" y="13" type="line"/>
      <point x="280" y="13" type="line"/>
      <point x="94" y="528" type="line"/>
      <point x="22" y="528" type="line"/>
    </contour>
  </outline>
</glyph>
<glyph name="braceleft" format="2">
  <advance width="368"/>
  <unicode hex="007B"/>
  <outline>
    <contour>
      <point x="298" y="-182" type="curve" smooth="yes"/>
      <point x="317" y="-182" type="line"/>
      <point x="317" y="-125" type="line"/>
      <point x="298" y="-125" type="line" smooth="yes"/>
      <point x="232" y="-125"/>
      <point x="195" y="-88"/>
      <point x="195" y="-4" type="curve" smooth="yes"/>
      <point x="195" y="182" type="line" smooth="yes"/>
      <point x="195" y="249"/>
      <point x="165" y="285"/>
      <point x="111" y="294" type="curve"/>
      <point x="111" y="302" type="line"/>
      <point x="165" y="311"/>
      <point x="195" y="348"/>
      <point x="195" y="414" type="curve" smooth="yes"/>
      <point x="195" y="599" type="line" smooth="yes"/>
      <point x="195" y="682"/>
      <point x="232" y="720"/>
      <point x="298" y="720" type="curve" smooth="yes"/>
      <point x="317" y="720" type="line"/>
      <point x="317" y="776" type="line"/>
      <point x="298" y="776" type="line" smooth="yes"/>
      <point x="196" y="776"/>
      <point x="128" y="716"/>
      <point x="128" y="595" type="curve" smooth="yes"/>
      <point x="128" y="404" type="line" smooth="yes"/>
      <point x="128" y="358"/>
      <point x="99" y="335"/>
      <point x="63" y="335" type="curve"/>
      <point x="63" y="261" type="line"/>
      <point x="99" y="261"/>
      <point x="128" y="239"/>
      <point x="128" y="193" type="curve" smooth="yes"/>
      <point x="128" y="0" type="line" smooth="yes"/>
      <point x="128" y="-122"/>
      <point x="196" y="-182"/>
    </contour>
  </outline>
</glyph>
<glyph name="bar" format="2">
  <advance width="372"/>
  <unicode hex="007C"/>
  <outline>
    <contour>
      <point x="155" y="-200" type="line"/>
      <point x="218" y="-200" type="line"/>
      <point x="218" y="730" type="line"/>
      <point x="155" y="730" type="line"/>
    </contour>
  </outline>
</glyph>
<glyph name="sterling" format="2">
  <advance width="618"/>
  <unicode hex="00A3"/>
  <outline>
    <contour>
      <point x="131" y="0" type="line"/>
      <point x="195" y="0" type="line"/>
      <point x="195" y="489" type="line" smooth="yes"/>
      <point x="195" y="629"/>
      <point x="263" y="676"/>
      <point x="373" y="676" type="curve" smooth="yes"/>
      <point x="420" y="676"/>
      <point x="491" y="671"/>
      <point x="532" y="664" type="curve"/>
      <point x="532" y="725" type="line"/>
      <point x="492" y="731"/>
      <point x="423" y="737"/>
      <point x="375" y="737" type="curve" smooth="yes"/>
      <point x="214" y="737"/>
      <point x="131" y="653"/>
      <point x="131" y="493" type="curve" smooth="yes"/>
    </contour>
    <contour>
      <point x="46" y="0" type="line"/>
      <point x="553" y="0" type="line"/>
      <point x="553" y="57" type="line"/>
      <point x="46" y="57" type="line"/>
    </contour>
    <contour>
      <point x="52" y="323" type="line"/>
      <point x="451" y="323" type="line"/>
      <point x="451" y="373" type="line"/>
      <point x="52" y="373" type="line"/>
    </contour>
    <contour>
      <point x="519" y="0" type="line"/>
      <point x="579" y="0" type="line"/>
      <point x="579" y="162" type="line"/>
      <point x="519" y="162" type="line"/>
    </contour>
  </outline>
</glyph>
<glyph name="currency" format="2">
  <advance width="655"/>
  <unicode hex="00A4"/>
  <outline>
    <contour>
      <point x="328" y="151" type="curve" smooth="yes"/>
      <point x="468" y="151"/>
      <point x="548" y="257"/>
      <point x="548" y="362" type="curve" smooth="yes"/>
      <point x="548" y="376" type="line" smooth="yes"/>
      <point x="548" y="484"/>
      <point x="468" y="588"/>
      <point x="328" y="588" type="curve" smooth="yes"/>
      <point x="188" y="588"/>
      <point x="108" y="484"/>
      <point x="108" y="376" type="curve" smooth="yes"/>
      <point x="108" y="362" type="line" smooth="yes"/>
      <point x="108" y="257"/>
      <point x="188" y="151"/>
    </contour>
    <contour>
      <point x="96" y="106" type="line"/>
      <point x="197" y="205" type="line"/>
      <point x="155" y="248" type="line"/>
      <point x="54" y="148" type="line"/>
    </contour>
    <contour>
      <point x="155" y="491" type="line"/>
      <point x="197" y="533" type="line"/>
      <point x="96" y="632" type="line"/>
      <point x="54" y="590" type="line"/>
    </contour>
    <contour>
      <point x="328" y="210" type="curve" smooth="yes"/>
      <point x="230" y="210"/>
      <point x="171" y="279"/>
      <point x="171" y="369" type="curve" smooth="yes"/>
      <point x="171" y="463"/>
      <point x="231" y="529"/>
      <point x="328" y="529" type="curve" smooth="yes"/>
      <point x="424" y="529"/>
      <point x="484" y="463"/>
      <point x="484" y="369" type="curve" smooth="yes"/>
      <point x="484" y="279"/>
      <point x="425" y="210"/>
    </contour>
    <contour>
      <point x="559" y="106" type="line"/>
      <point x="601" y="148" type="line"/>
      <point x="501" y="248" type="line"/>
      <point x="459" y="205" type="line"/>
    </contour>
    <contour>
      <point x="501" y="491" type="line"/>
      <point x="601" y="590" type="line"/>
      <point x="559" y="632" type="line"/>
      <point x="459" y="533" type="line"/>
    </contour>
  </outline>
</glyph>
<glyph name="copyright" format="2">
  <advance width="726"/>
  <unicode hex="00A9"/>
  <outline>
    <contour>
      <point x="363" y="123" type="curve" smooth="yes"/>
      <point x="568" y="123"/>
      <point x="671" y="278"/>
      <point x="671" y="429" type="curve" smooth="yes"/>
      <point x="671" y="444" type="line" smooth="yes"/>
      <point x="671" y="598"/>
      <point x="565" y="749"/>
      <point x="363" y="749" type="curve" smooth="yes"/>
      <point x="161" y="749"/>
      <point x="55" y="598"/>
      <point x="55" y="444" type="curve" smooth="yes"/>
      <point x="55" y="429" type="line" smooth="yes"/>
      <point x="55" y="278"/>
      <point x="158" y="123"/>
    </contour>
    <contour>
      <point x="363" y="166" type="curve" smooth="yes"/>
      <point x="200" y="166"/>
      <point x="103" y="290"/>
      <point x="103" y="436" type="curve" smooth="yes"/>
      <point x="103" y="585"/>
      <point x="200" y="706"/>
      <point x="363" y="706" type="curve" smooth="yes"/>
      <point x="526" y="706"/>
      <point x="623" y="585"/>
      <point x="623" y="436" type="curve" smooth="yes"/>
      <point x="623" y="290"/>
      <point x="526" y="166"/>
    </contour>
    <contour>
      <point x="369" y="256" type="curve" smooth="yes"/>
      <point x="447" y="256"/>
      <point x="510" y="304"/>
      <point x="515" y="381" type="curve"/>
      <point x="466" y="381" type="line"/>
      <point x="461" y="335"/>
      <point x="425" y="303"/>
      <point x="369" y="303" type="curve" smooth="yes"/>
      <point x="292" y="303"/>
      <point x="261" y="363"/>
      <point x="261" y="437" type="curve" smooth="yes"/>
      <point x="261" y="514"/>
      <point x="294" y="567"/>
      <point x="369" y="567" type="curve" smooth="yes"/>
      <point x="427" y="567"/>
      <point x="458" y="536"/>
      <point x="464" y="489" type="curve"/>
      <point x="513" y="489" type="line"/>
      <point x="506" y="567"/>
      <point x="448" y="615"/>
      <point x="369" y="615" type="curve" smooth="yes"/>
      <point x="261" y="615"/>
      <point x="209" y="530"/>
      <point x="209" y="443" type="curve" smooth="yes"/>
      <point x="209" y="431" type="line" smooth="yes"/>
      <point x="209" y="348"/>
      <point x="258" y="256"/>
    </contour>
  </outline>
</glyph>
<glyph name="paragraph" format="2">
  <advance width="612"/>
  <unicode hex="00B6"/>
  <outline>
    <contour>
      <point x="201" y="413" type="curve" smooth="yes"/>
      <point x="303" y="413" type="line"/>
      <point x="303" y="734" type="line"/>
      <point x="201" y="734" type="line" smooth="yes"/>
      <point x="80" y="734"/>
      <point x="12" y="673"/>
      <point x="12" y="579" type="curve" smooth="yes"/>
      <point x="12" y="568" type="line" smooth="yes"/>
      <point x="12" y="473"/>
      <point x="80" y="413"/>
    </contour>
    <contour>
      <point x="275" y="0" type="line"/>
      <point x="347" y="0" type="line"/>
      <point x="347" y="734" type="line"/>
      <point x="275" y="734" type="line"/>
    </contour>
    <contour>
      <point x="426" y="0" type="line"/>
      <point x="497" y="0" type="line"/>
      <point x="497" y="734" type="line"/>
      <point x="426" y="734" type="line"/>
    </contour>
  </outline>
</glyph>
<glyph name="AE" format="2">
  <advance width="968"/>
  <unicode hex="00C6"/>
  <outline>
    <contour>
      <point x="18" y="0" type="line"/>
      <point x="89" y="0" type="line"/>
      <point x="361" y="686" type="line"/>
      <point x="322" y="666" type="line"/>
      <point x="500" y="666" type="line"/>
      <point x="500" y="730" type="line"/>
      <point x="310" y="730" type="line"/>
    </contour>
    <contour>
      <point x="175" y="274" type="line"/>
      <point x="500" y="274" type="line"/>
      <point x="500" y="339" type="line"/>
      <point x="200" y="339" type="line"/>
    </contour>
    <contour>
      <point x="482" y="0" type="line"/>
      <point x="554" y="0" type="line"/>
      <point x="554" y="730" type="line"/>
      <point x="482" y="730" type="line"/>
    </contour>
    <contour>
      <point x="536" y="0" type="line"/>
      <point x="901" y="0" type="line"/>
      <point x="901" y="64" type="line"/>
      <point x="536" y="64" type="line"/>
    </contour>
    <contour>
      <point x="536" y="337" type="line"/>
      <point x="867" y="337" type="line"/>
      <point x="867" y="402" type="line"/>
      <point x="536" y="402" type="line"/>
    </contour>
    <contour>
      <point x="536" y="666" type="line"/>
      <point x="890" y="666" type="line"/>
      <point x="890" y="730" type="line"/>
      <point x="536" y="730" type="line"/>
    </contour>
  </outline>
</glyph>
<glyph name="multiply" format="2">
  <advance width="588"/>
  <unicode hex="00D7"/>
  <outline>
    <contour>
      <point x="469" y="129" type="line"/>
      <point x="77" y="520" type="line"/>
      <point x="119" y="561" type="line"/>
      <point x="511" y="171" type="line"/>
    </contour>
    <contour>
      <point x="116" y="129" type="line"/>
      <point x="77" y="169" type="line"/>
      <point x="471" y="561" type="line"/>
      <point x="511" y="522" type="line"/>
    </contour>
  </outline>
</glyph>
<glyph name="Oslash" format="2">
  <advance width="868"/>
  <unicode hex="00D8"/>
  <anchor x="435" y="0" name="bottom"/>
  <anchor x="435" y="365" name="center"/>
  <anchor x="565" y="10" name="ogonek"/>
  <anchor x="435" y="730" name="top"/>
  <outline>
    <contour>
      <point x="114" y="-44" type="line"/>
      <point x="185" y="-44" type="line"/>
      <point x="754" y="769" type="line"/>
      <point x="682" y="769" type="line"/>
    </contour>
    <component base="O"/>
  </outline>
</glyph>
<glyph name="ae" format="2">
  <advance width="955"/>
  <unicode hex="00E6"/>
  <outline>
    <contour>
      <point x="666" y="-17" type="curve" smooth="yes"/>
      <point x="791" y="-17"/>
      <point x="877" y="49"/>
      <point x="899" y="153" type="curve"/>
      <point x="832" y="153" type="line"/>
      <point x="819" y="94"/>
      <point x="759" y="46"/>
      <point x="666" y="46" type="curve" smooth="yes"/>
      <point x="533" y="46"/>
      <point x="472" y="143"/>
      <point x="472" y="265" type="curve" smooth="yes"/>
      <point x="472" y="387"/>
      <point x="536" y="481"/>
      <point x="660" y="481" type="curve" smooth="yes"/>
      <point x="776" y="481"/>
      <point x="841" y="399"/>
      <point x="841" y="281" type="curve"/>
      <point x="859" y="309" type="line"/>
      <point x="461" y="309" type="line"/>
      <point x="461" y="254" type="line"/>
      <point x="907" y="254" type="line"/>
      <point x="907" y="292" type="line" smooth="yes"/>
      <point x="907" y="421"/>
      <point x="822" y="544"/>
      <point x="660" y="544" type="curve" smooth="yes"/>
      <point x="517" y="544"/>
      <point x="442" y="453"/>
      <point x="420" y="340" type="curve"/>
      <point x="466" y="340" type="line"/>
      <point x="466" y="478"/>
      <point x="411" y="534"/>
      <point x="252" y="534" type="curve" smooth="yes"/>
      <point x="207" y="534"/>
      <point x="156" y="531"/>
      <point x="115" y="526" type="curve"/>
      <point x="115" y="464" type="line"/>
      <point x="156" y="468"/>
      <point x="220" y="472"/>
      <point x="279" y="472" type="curve" smooth="yes"/>
      <point x="368" y="472"/>
      <point x="407" y="427"/>
      <point x="407" y="348" type="curve" smooth="yes"/>
      <point x="407" y="194" type="line" smooth="yes"/>
      <point x="403" y="79"/>
      <point x="326" y="43"/>
      <point x="252" y="43" type="curve" smooth="yes"/>
      <point x="171" y="43"/>
      <point x="121" y="86"/>
      <point x="121" y="154" type="curve" smooth="yes"/>
      <point x="121" y="221"/>
      <point x="167" y="265"/>
      <point x="252" y="265" type="curve" smooth="yes"/>
      <point x="413" y="265" type="line"/>
      <point x="413" y="319" type="line"/>
      <point x="257" y="319" type="line" smooth="yes"/>
      <point x="126" y="319"/>
      <point x="52" y="260"/>
      <point x="52" y="155" type="curve" smooth="yes"/>
      <point x="52" y="47"/>
      <point x="128" y="-14"/>
      <point x="240" y="-14" type="curve" smooth="yes"/>
      <point x="350" y="-14"/>
      <point x="435" y="44"/>
      <point x="443" y="169" type="curve"/>
      <point x="422" y="169" type="line"/>
      <point x="448" y="75"/>
      <point x="517" y="-17"/>
    </contour>
  </outline>
</glyph>
<glyph name="eth" format="2">
  <advance width="637"/>
  <unicode hex="00F0"/>
  <outline>
    <contour>
      <point x="319" y="-18" type="curve" smooth="yes"/>
      <point x="498" y="-18"/>
      <point x="577" y="108"/>
      <point x="577" y="287" type="curve" smooth="yes"/>
      <point x="577" y="307" type="line" smooth="yes"/>
      <point x="577" y="609"/>
      <point x="497" y="728"/>
      <point x="294" y="728" type="curve" smooth="yes"/>
      <point x="256" y="728"/>
      <point x="223" y="725"/>
      <point x="190" y="720" type="curve"/>
      <point x="190" y="663" type="line"/>
      <point x="224" y="668"/>
      <point x="259" y="671"/>
      <point x="294" y="671" type="curve" smooth="yes"/>
      <point x="362" y="671"/>
      <point x="401" y="657"/>
      <point x="432" y="634" type="curve" smooth="yes"/>
      <point x="491" y="591"/>
      <point x="513" y="491"/>
      <point x="515" y="345" type="curve"/>
      <point x="524" y="345" type="line"/>
      <point x="515" y="437"/>
      <point x="445" y="516"/>
      <point x="311" y="516" type="curve" smooth="yes"/>
      <point x="142" y="516"/>
      <point x="56" y="394"/>
      <point x="56" y="260" type="curve" smooth="yes"/>
      <point x="56" y="239" type="line" smooth="yes"/>
      <point x="56" y="111"/>
      <point x="137" y="-18"/>
    </contour>
    <contour>
      <point x="319" y="45" type="curve" smooth="yes"/>
      <point x="190" y="45"/>
      <point x="126" y="132"/>
      <point x="126" y="250" type="curve" smooth="yes"/>
      <point x="126" y="370"/>
      <point x="189" y="455"/>
      <point x="317" y="455" type="curve" smooth="yes"/>
      <point x="443" y="455"/>
      <point x="511" y="372"/>
      <point x="511" y="250" type="curve" smooth="yes"/>
      <point x="511" y="131"/>
      <point x="449" y="45"/>
    </contour>
    <contour>
      <point x="352" y="542" type="line"/>
      <point x="573" y="723" type="line"/>
      <point x="546" y="756" type="line"/>
      <point x="325" y="575" type="line"/>
    </contour>
  </outline>
</glyph>
<glyph name="divide" format="2">
  <advance width="588"/>
  <unicode hex="00F7"/>
  <outline>
    <contour>
      <point x="74" y="316" type="line"/>
      <point x="513" y="316" type="line"/>
      <point x="513" y="373" type="line"/>
      <point x="74" y="373" type="line"/>
    </contour>
    <contour>
      <point x="252" y="104" type="line"/>
      <point x="335" y="104" type="line"/>
      <point x="335" y="194" type="line"/>
      <point x="252" y="194" type="line"/>
    </contour>
    <contour>
      <point x="252" y="495" type="line"/>
      <point x="335" y="495" type="line"/>
      <point x="335" y="585" type="line"/>
      <point x="252" y="585" type="line"/>
    </contour>
  </outline>
</glyph>
<glyph name="thorn" format="2">
  <advance width="683"/>
  <unicode hex="00FE"/>
  <outline>
    <contour>
      <point x="99" y="-200" type="line"/>
      <point x="169" y="-200" type="line"/>
      <point x="169" y="161" type="line"/>
      <point x="134" y="235" type="line"/>
      <point x="140" y="74"/>
      <point x="239" y="-16"/>
      <point x="372" y="-16" type="curve" smooth="yes"/>
      <point x="528" y="-16"/>
      <point x="627" y="110"/>
      <point x="627" y="257" type="curve" smooth="yes"/>
      <point x="627" y="271" type="line" smooth="yes"/>
      <point x="627" y="422"/>
      <point x="532" y="547"/>
      <point x="376" y="547" type="curve" smooth="yes"/>
      <point x="243" y="547"/>
      <point x="145" y="456"/>
      <point x="139" y="301" type="curve"/>
      <point x="169" y="357" type="line"/>
      <point x="169" y="730" type="line"/>
      <point x="99" y="730" type="line"/>
    </contour>
    <contour>
      <point x="361" y="46" type="curve" smooth="yes"/>
      <point x="250" y="46"/>
      <point x="165" y="127"/>
      <point x="165" y="239" type="curve" smooth="yes"/>
      <point x="165" y="288" type="line" smooth="yes"/>
      <point x="165" y="406"/>
      <point x="251" y="485"/>
      <point x="361" y="485" type="curve" smooth="yes"/>
      <point x="481" y="485"/>
      <point x="557" y="391"/>
      <point x="557" y="267" type="curve" smooth="yes"/>
      <point x="557" y="147"/>
      <point x="483" y="46"/>
    </contour>
  </outline>
</glyph>
<glyph name="Hbar" format="2">
  <advance width="806"/>
  <unicode hex="0126"/>
  <anchor x="403" y="0" name="bottom"/>
  <anchor x="403" y="606" name="center"/>
  <anchor x="403" y="730" name="top"/>
  <outline>
    <contour>
      <point x="49" y="571" type="line"/>
      <point x="758" y="571" type="line"/>
      <point x="758" y="630" type="line"/>
      <point x="49" y="630" type="line"/>
    </contour>
    <component base="H"/>
  </outline>
</glyph>
<glyph name="idotless" format="2">
  <advance width="297"/>
  <unicode hex="0131"/>
  <anchor x="161" y="0" name="bottom"/>
  <anchor x="196" y="10" name="ogonek"/>
  <anchor x="125" y="528" name="top"/>
  <outline>
    <contour>
      <point x="126" y="0" type="line"/>
      <point x="196" y="0" type="line"/>
      <point x="196" y="528" type="line"/>
      <point x="126" y="528" type="line"/>
    </contour>
    <contour>
      <point x="41" y="471" type="line"/>
      <point x="196" y="471" type="line"/>
      <point x="196" y="528" type="line"/>
      <point x="41" y="528" type="line"/>
    </contour>
  </outline>
</glyph>
<glyph name="lslash" format="2">
  <advance width="271"/>
  <unicode hex="0142"/>
  <anchor x="138" y="0" name="bottom"/>
  <anchor x="138" y="480" name="center"/>
  <anchor x="106" y="730" name="top"/>
  <anchor x="174" y="534" name="topright"/>
  <outline>
    <contour>
      <point x="27" y="240" type="line"/>
      <point x="117" y="293" type="line"/>
      <point x="117" y="348" type="line"/>
      <point x="27" y="295" type="line"/>
    </contour>
    <contour>
      <point x="159" y="314" type="line"/>
      <point x="248" y="366" type="line"/>
      <point x="248" y="422" type="line"/>
      <point x="159" y="370" type="line"/>
    </contour>
    <component base="l"/>
  </outline>
</glyph>
<glyph name="Eng" format="2">
  <advance width="838"/>
  <unicode hex="014A"/>
  <outline>
    <contour>
      <point x="423" y="-217" type="line"/>
      <point x="526" y="-217" type="line" smooth="yes"/>
      <point x="655" y="-217"/>
      <point x="722" y="-152"/>
      <point x="722" y="-11" type="curve" smooth="yes"/>
      <point x="722" y="730" type="line"/>
      <point x="653" y="730" type="line"/>
      <point x="653" y="49" type="line"/>
      <point x="673" y="64" type="line"/>
      <point x="641" y="64" type="line"/>
      <point x="236" y="730" type="line"/>
      <point x="116" y="730" type="line"/>
      <point x="116" y="0" type="line"/>
      <point x="183" y="0" type="line"/>
      <point x="183" y="681" type="line"/>
      <point x="163" y="666" type="line"/>
      <point x="195" y="666" type="line"/>
      <point x="598" y="5" type="line"/>
      <point x="680" y="5" type="line"/>
      <point x="653" y="23" type="line"/>
      <point x="653" y="-23" type="line" smooth="yes"/>
      <point x="653" y="-109"/>
      <point x="617" y="-154"/>
      <point x="535" y="-154" type="curve" smooth="yes"/>
      <point x="423" y="-154" type="line"/>
    </contour>
  </outline>
</glyph>
<glyph name="OE" format="2">
  <advance width="1061"/>
  <unicode hex="0152"/>
  <outline>
    <contour>
      <point x="444" y="-18" type="curve" smooth="yes"/>
      <point x="497" y="-18"/>
      <point x="547" y="-11"/>
      <point x="584" y="0" type="curve"/>
      <point x="645" y="0" type="line"/>
      <point x="645" y="730" type="line"/>
      <point x="586" y="730" type="line"/>
      <point x="551" y="741"/>
      <point x="497" y="749"/>
      <point x="444" y="749" type="curve" smooth="yes"/>
      <point x="189" y="749"/>
      <point x="62" y="563"/>
      <point x="62" y="375" type="curve" smooth="yes"/>
      <point x="62" y="357" type="line" smooth="yes"/>
      <point x="62" y="182"/>
      <point x="179" y="-18"/>
    </contour>
    <contour>
      <point x="444" y="46" type="curve" smooth="yes"/>
      <point x="245" y="46"/>
      <point x="135" y="195"/>
      <point x="135" y="365" type="curve" smooth="yes"/>
      <point x="135" y="542"/>
      <point x="249" y="685"/>
      <point x="444" y="685" type="curve" smooth="yes"/>
      <point x="496" y="685"/>
      <point x="557" y="676"/>
      <point x="598" y="659" type="curve"/>
      <point x="574" y="684" type="line"/>
      <point x="574" y="43" type="line"/>
      <point x="596" y="72" type="line"/>
      <point x="555" y="55"/>
      <point x="495" y="46"/>
    </contour>
    <contour>
      <point x="628" y="0" type="line"/>
      <point x="995" y="0" type="line"/>
      <point x="995" y="64" type="line"/>
      <point x="628" y="64" type="line"/>
    </contour>
    <contour>
      <point x="627" y="339" type="line"/>
      <point x="961" y="339" type="line"/>
      <point x="961" y="403" type="line"/>
      <point x="627" y="403" type="line"/>
    </contour>
    <contour>
      <point x="629" y="666" type="line"/>
      <point x="983" y="666" type="line"/>
      <point x="983" y="730" type="line"/>
      <point x="629" y="730" type="line"/>
    </contour>
  </outline>
</glyph>
<glyph name="circumflexcomb" format="2">
  <unicode hex="0302"/>
  <anchor x="151" y="528" name="_top"/>
  <anchor x="151" y="804" name="top"/>
  <outline>
    <contour>
      <point x="0" y="612" type="line"/>
      <point x="59" y="612" type="line"/>
      <point x="147" y="767" type="line"/>
      <point x="155" y="767" type="line"/>
      <point x="241" y="612" type="line"/>
      <point x="300" y="612" type="line"/>
      <point x="192" y="804" type="line"/>
      <point x="108" y="804" type="line"/>
    </contour>
  </outline>
</glyph>
<glyph name="macroncomb" format="2">
  <unicode hex="0304"/>
  <anchor x="128" y="528" name="_top"/>
  <anchor x="128" y="814" name="top"/>
  <outline>
    <contour>
      <point x="0" y="672" type="line"/>
      <point x="257" y="672" type="line"/>
      <point x="257" y="724" type="line"/>
      <point x="0" y="724" type="line"/>
    </contour>
  </outline>
</glyph>
<glyph name="brevecomb" format="2">
  <unicode hex="0306"/>
  <anchor x="143" y="528" name="_top"/>
  <anchor x="144" y="803" name="top"/>
  <outline>
    <contour>
      <point x="144" y="607" type="curve" smooth="yes"/>
      <point x="237" y="607"/>
      <point x="283" y="678"/>
      <point x="287" y="804" type="curve"/>
      <point x="238" y="804" type="line"/>
      <point x="232" y="709"/>
      <point x="205" y="655"/>
      <point x="144" y="655" type="curve" smooth="yes"/>
      <point x="84" y="655"/>
      <point x="57" y="709"/>
      <point x="51" y="804" type="curve"/>
      <point x="0" y="804" type="line"/>
      <point x="4" y="678"/>
      <point x="50" y="607"/>
    </contour>
  </outline>
</glyph>
<glyph name="ringcomb" format="2">
  <unicode hex="030A"/>
  <anchor x="109" y="528" name="_top"/>
  <anchor x="109" y="804" name="top"/>
  <outline>
    <contour>
      <point x="109" y="602" type="curve" smooth="yes"/>
      <point x="174" y="602"/>
      <point x="218" y="649"/>
      <point x="218" y="710" type="curve" smooth="yes"/>
      <point x="218" y="771"/>
      <point x="174" y="818"/>
      <point x="109" y="818" type="curve" smooth="yes"/>
      <point x="44" y="818"/>
      <point x="0" y="771"/>
      <point x="0" y="710" type="curve" smooth="yes"/>
      <point x="0" y="649"/>
      <point x="44" y="602"/>
    </contour>
    <contour>
      <point x="109" y="643" type="curve" smooth="yes"/>
      <point x="69" y="643"/>
      <point x="43" y="671"/>
      <point x="43" y="710" type="curve" smooth="yes"/>
      <point x="43" y="749"/>
      <point x="69" y="776"/>
      <point x="109" y="776" type="curve" smooth="yes"/>
      <point x="149" y="776"/>
      <point x="174" y="749"/>
      <point x="174" y="710" type="curve" smooth="yes"/>
      <point x="174" y="671"/>
      <point x="149" y="643"/>
    </contour>
  </outline>
</glyph>
<glyph name="commaturnedabovecomb" format="2">
  <unicode hex="0312"/>
  <anchor x="56" y="528" name="_top"/>
  <anchor x="55" y="817" name="top"/>
  <outline>
    <contour>
      <point x="63" y="604" type="curve" smooth="yes"/>
      <point x="90" y="604"/>
      <point x="111" y="620"/>
      <point x="111" y="652" type="curve" smooth="yes"/>
      <point x="111" y="682"/>
      <point x="91" y="697"/>
      <point x="67" y="697" type="curve" smooth="yes"/>
      <point x="46" y="697"/>
      <point x="33" y="684"/>
      <point x="27" y="671" type="curve"/>
      <point x="42" y="671" type="line"/>
      <point x="41" y="706" type="line" smooth="yes"/>
      <point x="41" y="756"/>
      <point x="63" y="784"/>
      <point x="108" y="784" type="curve" smooth="yes"/>
      <point x="115" y="784" type="line"/>
      <point x="115" y="821" type="line"/>
      <point x="110" y="821" type="line" smooth="yes"/>
      <point x="39" y="821"/>
      <point x="0" y="783"/>
      <point x="0" y="702" type="curve" smooth="yes"/>
      <point x="0" y="696" type="line" smooth="yes"/>
      <point x="0" y="634"/>
      <point x="26" y="604"/>
    </contour>
  </outline>
</glyph>
<glyph name="ogonekcomb" format="2">
  <unicode hex="0328"/>
  <anchor x="215" y="10" name="_ogonek"/>
  <outline>
    <contour>
      <point x="175" y="-240" type="curve" smooth="yes"/>
      <point x="195" y="-240"/>
      <point x="212" y="-237"/>
      <point x="227" y="-231" type="curve"/>
      <point x="227" y="-180" type="line"/>
      <point x="210" y="-186"/>
      <point x="193" y="-189"/>
      <point x="177" y="-189" type="curve" smooth="yes"/>
      <point x="143" y="-189"/>
      <point x="121" y="-171"/>
      <point x="121" y="-133" type="curve" smooth="yes"/>
      <point x="121" y="-95"/>
      <point x="143" y="-60"/>
      <point x="189" y="-21" type="curve" smooth="yes"/>
      <point x="215" y="0" type="line"/>
      <point x="191" y="32" type="line"/>
      <point x="164" y="11" type="line" smooth="yes"/>
      <point x="106" y="-35"/>
      <point x="69" y="-79"/>
      <point x="69" y="-139" type="curve" smooth="yes"/>
      <point x="69" y="-204"/>
      <point x="112" y="-240"/>
    </contour>
  </outline>
</glyph>
<glyph name="strokelongcomb" format="2">
  <unicode hex="0336"/>
  <anchor x="150" y="360" name="_center"/>
  <outline>
    <contour>
      <point x="-29" y="330" type="line"/>
      <point x="329" y="330" type="line"/>
      <point x="329" y="389" type="line"/>
      <point x="-29" y="389" type="line"/>
    </contour>
  </outline>
</glyph>
<glyph name="riel-khmer" format="2">
  <advance width="510"/>
  <unicode hex="17DB"/>
  <outline>
    <contour>
      <point x="255" y="-5" type="curve" smooth="yes"/>
      <point x="333" y="-5" type="line"/>
      <point x="333" y="379" type="line"/>
      <point x="271" y="379" type="line"/>
      <point x="271" y="22" type="line"/>
      <point x="301" y="52" type="line"/>
      <point x="252" y="52" type="line" smooth="yes"/>
      <point x="176" y="52"/>
      <point x="133" y="82"/>
      <point x="133" y="137" type="curve" smooth="yes"/>
      <point x="133" y="198"/>
      <point x="186" y="223"/>
      <point x="278" y="223" type="curve"/>
      <point x="278" y="277" type="line"/>
      <point x="156" y="277"/>
      <point x="72" y="229"/>
      <point x="72" y="136" type="curve" smooth="yes"/>
      <point x="72" y="43"/>
      <point x="148" y="-5"/>
    </contour>
    <contour>
      <point x="128" y="363" type="line"/>
      <point x="462" y="363" type="line"/>
      <point x="462" y="413" type="line"/>
      <point x="128" y="413" type="line"/>
    </contour>
    <contour>
      <point x="271" y="397" type="line"/>
      <point x="333" y="397" type="line"/>
      <point x="333" y="436" type="line" smooth="yes"/>
      <point x="333" y="485"/>
      <point x="321" y="512"/>
      <point x="282" y="537" type="curve" smooth="yes"/>
      <point x="248" y="559"/>
      <point x="210" y="579"/>
      <point x="193" y="592" type="curve" smooth="yes"/>
      <point x="176" y="605"/>
      <point x="171" y="624"/>
      <point x="181" y="648" type="curve" smooth="yes"/>
      <point x="190" y="672"/>
      <point x="207" y="679"/>
      <point x="244" y="679" type="curve" smooth="yes"/>
      <point x="302" y="679"/>
      <point x="341" y="674"/>
      <point x="391" y="667" type="curve"/>
      <point x="391" y="726" type="line"/>
      <point x="343" y="733"/>
      <point x="295" y="736"/>
      <point x="251" y="736" type="curve" smooth="yes"/>
      <point x="183" y="736"/>
      <point x="144" y="722"/>
      <point x="123" y="676" type="curve" smooth="yes"/>
      <point x="102" y="630"/>
      <point x="107" y="581"/>
      <point x="154" y="548" type="curve" smooth="yes"/>
      <point x="177" y="532"/>
      <point x="211" y="513"/>
      <point x="239" y="494" type="curve" smooth="yes"/>
      <point x="263" y="477"/>
      <point x="271" y="461"/>
      <point x="271" y="436" type="curve" smooth="yes"/>
    </contour>
  </outline>
</glyph>
<glyph name="Germandbls" format="2">
  <advance width="1343"/>
  <unicode hex="1E9E"/>
  <outline>
    <contour>
      <point x="345" y="-16" type="curve" smooth="yes"/>
      <point x="521" y="-16"/>
      <point x="620" y="75"/>
      <point x="620" y="202" type="curve" smooth="yes"/>
      <point x="620" y="314"/>
      <point x="536" y="389"/>
      <point x="389" y="403" type="curve" smooth="yes"/>
      <point x="308" y="410" type="line" smooth="yes"/>
      <point x="218" y="418"/>
      <point x="171" y="467"/>
      <point x="171" y="535" type="curve" smooth="yes"/>
      <point x="171" y="613"/>
      <point x="222" y="681"/>
      <point x="342" y="681" type="curve" smooth="yes"/>
      <point x="465" y="681"/>
      <point x="520" y="605"/>
      <point x="520" y="527" type="curve"/>
      <point x="590" y="527" type="line"/>
      <point x="590" y="658"/>
      <point x="500" y="747"/>
      <point x="342" y="747" type="curve" smooth="yes"/>
      <point x="188" y="747"/>
      <point x="100" y="659"/>
      <point x="100" y="535" type="curve" smooth="yes"/>
      <point x="100" y="422"/>
      <point x="178" y="356"/>
      <point x="301" y="344" type="curve" smooth="yes"/>
      <point x="382" y="337" type="line" smooth="yes"/>
      <point x="493" y="327"/>
      <point x="548" y="272"/>
      <point x="548" y="202" type="curve" smooth="yes"/>
      <point x="548" y="116"/>
      <point x="482" y="50"/>
      <point x="345" y="50" type="curve" smooth="yes"/>
      <point x="194" y="50"/>
      <point x="137" y="129"/>
      <point x="137" y="212" type="curve"/>
      <point x="67" y="212" type="line"/>
      <point x="67" y="75"/>
      <point x="164" y="-16"/>
    </contour>
    <contour>
      <point x="1001" y="-16" type="curve" smooth="yes"/>
      <point x="1177" y="-16"/>
      <point x="1273" y="75"/>
      <point x="1273" y="202" type="curve" smooth="yes"/>
      <point x="1273" y="315"/>
      <point x="1188" y="390"/>
      <point x="1042" y="403" type="curve" smooth="yes"/>
      <point x="959" y="410" type="line" smooth="yes"/>
      <point x="869" y="418"/>
      <point x="822" y="467"/>
      <point x="822" y="535" type="curve" smooth="yes"/>
      <point x="822" y="613"/>
      <point x="874" y="681"/>
      <point x="995" y="681" type="curve" smooth="yes"/>
      <point x="1118" y="681"/>
      <point x="1173" y="605"/>
      <point x="1173" y="527" type="curve"/>
      <point x="1244" y="527" type="line"/>
      <point x="1244" y="658"/>
      <point x="1153" y="747"/>
      <point x="995" y="747" type="curve" smooth="yes"/>
      <point x="840" y="747"/>
      <point x="751" y="659"/>
      <point x="751" y="535" type="curve" smooth="yes"/>
      <point x="751" y="422"/>
      <point x="828" y="355"/>
      <point x="952" y="344" type="curve" smooth="yes"/>
      <point x="1035" y="337" type="line" smooth="yes"/>
      <point x="1146" y="327"/>
      <point x="1202" y="273"/>
      <point x="1202" y="202" type="curve" smooth="yes"/>
      <point x="1202" y="116"/>
      <point x="1138" y="50"/>
      <point x="1001" y="50" type="curve" smooth="yes"/>
      <point x="851" y="50"/>
      <point x="796" y="129"/>
      <point x="796" y="212" type="curve"/>
      <point x="726" y="212" type="line"/>
      <point x="726" y="75"/>
      <point x="821" y="-16"/>
    </contour>
  </outline>
</glyph>
<glyph name="minute" format="2">
  <advance width="260"/>
  <unicode hex="2032"/>
  <outline>
    <contour>
      <point x="73" y="470" type="line"/>
      <point x="134" y="470" type="line"/>
      <point x="187" y="730" type="line"/>
      <point x="127" y="730" type="line"/>
    </contour>
  </outline>
</glyph>
<glyph name="euro" format="2">
  <advance width="694"/>
  <unicode hex="20AC"/>
  <outline>
    <contour>
      <point x="406" y="-13" type="curve" smooth="yes"/>
      <point x="568" y="-13"/>
      <point x="645" y="73"/>
      <point x="651" y="196" type="curve"/>
      <point x="588" y="196" type="line"/>
      <point x="583" y="107"/>
      <point x="527" y="48"/>
      <point x="406" y="48" type="curve" smooth="yes"/>
      <point x="261" y="48"/>
      <point x="177" y="141"/>
      <point x="177" y="365" type="curve" smooth="yes"/>
      <point x="177" y="589"/>
      <point x="255" y="682"/>
      <point x="398" y="682" type="curve" smooth="yes"/>
      <point x="514" y="682"/>
      <point x="576" y="623"/>
      <point x="582" y="534" type="curve"/>
      <point x="645" y="534" type="line"/>
      <point x="639" y="655"/>
      <point x="559" y="743"/>
      <point x="398" y="743" type="curve" smooth="yes"/>
      <point x="213" y="743"/>
      <point x="113" y="618"/>
      <point x="113" y="372" type="curve" smooth="yes"/>
      <point x="113" y="358" type="line" smooth="yes"/>
      <point x="113" y="113"/>
      <point x="218" y="-13"/>
    </contour>
    <contour>
      <point x="21" y="258" type="line"/>
      <point x="465" y="258" type="line"/>
      <point x="465" y="308" type="line"/>
      <point x="21" y="308" type="line"/>
    </contour>
    <contour>
      <point x="39" y="404" type="line"/>
      <point x="483" y="404" type="line"/>
      <point x="483" y="454" type="line"/>
      <point x="39" y="454" type="line"/>
    </contour>
  </outline>
</glyph>
<glyph name="minus" format="2">
  <advance width="588"/>
  <unicode hex="2212"/>
  <outline>
    <contour>
      <point x="74" y="316" type="line"/>
      <point x="513" y="316" type="line"/>
      <point x="513" y="373" type="line"/>
      <point x="74" y="373" type="line"/>
    </contour>
  </outline>
</glyph>
<glyph name="lessequal" format="2">
  <advance width="586"/>
  <unicode hex="2264"/>
  <outline>
    <contour>
      <point x="78" y="44" type="line"/>
      <point x="508" y="44" type="line"/>
      <point x="508" y="101" type="line"/>
      <point x="78" y="101" type="line"/>
    </contour>
    <contour>
      <point x="507" y="183" type="line"/>
      <point x="507" y="239" type="line"/>
      <point x="79" y="367" type="line"/>
      <point x="79" y="314" type="line"/>
    </contour>
    <contour>
      <point x="79" y="353" type="line"/>
      <point x="507" y="481" type="line"/>
      <point x="507" y="539" type="line"/>
      <point x="79" y="408" type="line"/>
    </contour>
    <contour>
      <point x="103" y="330" type="line"/>
      <point x="130" y="330" type="line"/>
      <point x="130" y="390" type="line"/>
      <point x="103" y="390" type="line"/>
    </contour>
  </outline>
</glyph>
<glyph name="sora" format="2">
  <advance width="818"/>
  <unicode hex="E000"/>
  <outline>
    <contour>
      <point x="107" y="-8" type="line"/>
      <point x="400" y="427" type="line"/>
      <point x="379" y="421" type="line"/>
      <point x="438" y="421" type="line"/>
      <point x="417" y="427" type="line"/>
      <point x="708" y="-8" type="line"/>
      <point x="766" y="28" type="line"/>
      <point x="452" y="489" type="line"/>
      <point x="367" y="489" type="line"/>
      <point x="53" y="28" type="line"/>
    </contour>
    <contour>
      <point x="70" y="489" type="line"/>
      <point x="748" y="489" type="line"/>
      <point x="748" y="542" type="line"/>
      <point x="70" y="542" type="line"/>
    </contour>
    <contour>
      <point x="376" y="526" type="line"/>
      <point x="442" y="526" type="line"/>
      <point x="442" y="689" type="line"/>
      <point x="376" y="689" type="line"/>
    </contour>
    <contour>
      <point x="70" y="677" type="line"/>
      <point x="748" y="677" type="line"/>
      <point x="748" y="730" type="line"/>
      <point x="70" y="730" type="line"/>
    </contour>
  </outline>
</glyph>
<glyph name="I.salt" format="2">
  <advance width="446"/>
  <anchor x="223" y="0" name="bottom"/>
  <anchor x="271" y="10" name="ogonek"/>
  <anchor x="223" y="730" name="top"/>
  <outline>
    <contour>
      <point x="188" y="42" type="line"/>
      <point x="259" y="42" type="line"/>
      <point x="259" y="688" type="line"/>
      <point x="188" y="688" type="line"/>
    </contour>
    <contour>
      <point x="99" y="0" type="line"/>
      <point x="348" y="0" type="line"/>
      <point x="348" y="62" type="line"/>
      <point x="99" y="62" type="line"/>
    </contour>
    <contour>
      <point x="99" y="668" type="line"/>
      <point x="348" y="668" type="line"/>
      <point x="348" y="730" type="line"/>
      <point x="99" y="730" type="line"/>
    </contour>
  </outline>
</glyph>
<glyph name="J.salt" format="2">
  <advance width="582"/>
  <anchor x="270" y="0" name="bottom"/>
  <anchor x="438" y="730" name="top"/>
  <outline>
    <contour>
      <point x="268" y="-20" type="curve" smooth="yes"/>
      <point x="390" y="-20"/>
      <point x="474" y="53"/>
      <point x="474" y="193" type="curve" smooth="yes"/>
      <point x="474" y="730" type="line"/>
      <point x="403" y="730" type="line"/>
      <point x="403" y="181" type="line" smooth="yes"/>
      <point x="403" y="90"/>
      <point x="347" y="46"/>
      <point x="268" y="46" type="curve" smooth="yes"/>
      <point x="189" y="46"/>
      <point x="133" y="90"/>
      <point x="133" y="181" type="curve" smooth="yes"/>
      <point x="133" y="313" type="line"/>
      <point x="62" y="313" type="line"/>
      <point x="62" y="193" type="line" smooth="yes"/>
      <point x="62" y="53"/>
      <point x="146" y="-20"/>
    </contour>
  </outline>
</glyph>
<glyph name="P.salt" format="2">
  <advance width="635"/>
  <outline>
    <contour>
      <point x="168" y="335" type="line"/>
      <point x="386" y="335" type="line" smooth="yes"/>
      <point x="539" y="335"/>
      <point x="612" y="411"/>
      <point x="612" y="527" type="curve" smooth="yes"/>
      <point x="612" y="541" type="line" smooth="yes"/>
      <point x="612" y="657"/>
      <point x="538" y="733"/>
      <point x="386" y="733" type="curve" smooth="yes"/>
      <point x="168" y="733" type="line"/>
      <point x="168" y="670" type="line"/>
      <point x="398" y="670" type="line" smooth="yes"/>
      <point x="496" y="670"/>
      <point x="539" y="614"/>
      <point x="539" y="534" type="curve" smooth="yes"/>
      <point x="539" y="454"/>
      <point x="498" y="398"/>
      <point x="398" y="398" type="curve" smooth="yes"/>
      <point x="168" y="398" type="line"/>
    </contour>
    <contour>
      <point x="116" y="0" type="line"/>
      <point x="187" y="0" type="line"/>
      <point x="187" y="733" type="line"/>
      <point x="116" y="733" type="line"/>
    </contour>
  </outline>
</glyph>
<glyph name="R.salt" format="2">
  <advance width="699"/>
  <anchor x="375" y="0" name="bottom"/>
  <anchor x="337" y="730" name="top"/>
  <outline>
    <contour>
      <point x="116" y="0" type="line"/>
      <point x="187" y="0" type="line"/>
      <point x="187" y="733" type="line"/>
      <point x="116" y="733" type="line"/>
    </contour>
    <contour>
      <point x="565" y="0" type="line"/>
      <point x="644" y="0" type="line"/>
      <point x="470" y="350" type="line"/>
      <point x="394" y="350" type="line"/>
    </contour>
    <contour>
      <point x="168" y="331" type="line"/>
      <point x="392" y="331" type="line" smooth="yes"/>
      <point x="544" y="331"/>
      <point x="617" y="407"/>
      <point x="617" y="526" type="curve" smooth="yes"/>
      <point x="617" y="539" type="line" smooth="yes"/>
      <point x="617" y="658"/>
      <point x="543" y="733"/>
      <point x="392" y="733" type="curve" smooth="yes"/>
      <point x="168" y="733" type="line"/>
      <point x="168" y="670" type="line"/>
      <point x="404" y="670" type="line" smooth="yes"/>
      <point x="502" y="670"/>
      <point x="544" y="615"/>
      <point x="544" y="533" type="curve" smooth="yes"/>
      <point x="544" y="450"/>
      <point x="504" y="395"/>
      <point x="404" y="395" type="curve" smooth="yes"/>
      <point x="168" y="395" type="line"/>
    </contour>
  </outline>
</glyph>
<glyph name="acutecomb.case" format="2">
  <anchor x="45" y="730" name="_top"/>
  <anchor x="156" y="947" name="top"/>
  <outline>
    <contour>
      <point x="0" y="794" type="line"/>
      <point x="66" y="794" type="line"/>
      <point x="202" y="947" type="line"/>
      <point x="121" y="947" type="line"/>
    </contour>
  </outline>
</glyph>
<glyph name="asterisk.part" format="2">
  <advance width="193"/>
  <outline>
    <contour>
      <point x="156" y="321" type="line"/>
      <point x="190" y="380" type="line"/>
      <point x="52" y="448" type="line"/>
      <point x="52" y="492" type="line"/>
      <point x="190" y="560" type="line"/>
      <point x="156" y="619" type="line"/>
      <point x="0" y="514" type="line"/>
      <point x="0" y="426" type="line"/>
    </contour>
  </outline>
</glyph>
<glyph name="bracketleft.case" format="2">
  <advance width="368"/>
  <outline>
    <contour>
      <point x="121" y="-118" type="line"/>
      <point x="188" y="-118" type="line"/>
      <point x="188" y="806" type="line"/>
      <point x="121" y="806" type="line"/>
    </contour>
    <contour>
      <point x="147" y="-118" type="line"/>
      <point x="307" y="-118" type="line"/>
      <point x="307" y="-61" type="line"/>
      <point x="147" y="-61" type="line"/>
    </contour>
    <contour>
      <point x="147" y="750" type="line"/>
      <point x="307" y="750" type="line"/>
      <point x="307" y="806" type="line"/>
      <point x="147" y="806" type="line"/>
    </contour>
  </outline>
</glyph>
<glyph name="caroncomb.alt" format="2">
  <anchor x="0" y="528" name="_topright"/>
  <outline>
    <contour>
      <point x="85" y="574" type="line"/>
      <point x="136" y="574" type="line"/>
      <point x="144" y="807" type="line"/>
      <point x="85" y="807" type="line"/>
    </contour>
  </outline>
</glyph>
<glyph name="caroncomb.case" format="2">
  <anchor x="165" y="730" name="_top"/>
  <anchor x="165" y="947" name="top"/>
  <outline>
    <contour>
      <point x="121" y="794" type="line"/>
      <point x="208" y="794" type="line"/>
      <point x="323" y="947" type="line"/>
      <point x="258" y="947" type="line"/>
      <point x="174" y="831" type="line"/>
      <point x="156" y="831" type="line"/>
      <point x="67" y="947" type="line"/>
      <point x="0" y="947" type="line"/>
    </contour>
  </outline>
</glyph>
<glyph name="cent.tnum" format="2">
  <advance width="640"/>
  <outline>
    <contour>
      <point x="333" y="106" type="curve" smooth="yes"/>
      <point x="456" y="106"/>
      <point x="560" y="175"/>
      <point x="576" y="289" type="curve"/>
      <point x="508" y="289" type="line"/>
      <point x="496" y="218"/>
      <point x="427" y="167"/>
      <point x="333" y="167" type="curve" smooth="yes"/>
      <point x="207" y="167"/>
      <point x="140" y="255"/>
      <point x="140" y="368" type="curve" smooth="yes"/>
      <point x="140" y="483"/>
      <point x="208" y="568"/>
      <point x="332" y="568" type="curve" smooth="yes"/>
      <point x="424" y="568"/>
      <point x="487" y="519"/>
      <point x="501" y="453" type="curve"/>
      <point x="568" y="453" type="line"/>
      <point x="548" y="565"/>
      <point x="455" y="629"/>
      <point x="332" y="629" type="curve" smooth="yes"/>
      <point x="159" y="629"/>
      <point x="72" y="505"/>
      <point x="72" y="377" type="curve" smooth="yes"/>
      <point x="72" y="360" type="line" smooth="yes"/>
      <point x="72" y="233"/>
      <point x="158" y="106"/>
    </contour>
    <contour>
      <point x="301" y="0" type="line"/>
      <point x="364" y="0" type="line"/>
      <point x="364" y="135" type="line"/>
      <point x="301" y="135" type="line"/>
    </contour>
    <contour>
      <point x="301" y="595" type="line"/>
      <point x="364" y="595" type="line"/>
      <point x="364" y="730" type="line"/>
      <point x="301" y="730" type="line"/>
    </contour>
  </outline>
</glyph>
<glyph name="commaaccentcomb.case" format="2">
  <anchor x="60" y="0" name="_bottom"/>
  <anchor x="61" y="-300" name="bottom"/>
  <outline>
    <contour>
      <point x="0" y="-273" type="line"/>
      <point x="7" y="-273" type="line" smooth="yes"/>
      <point x="76" y="-273"/>
      <point x="121" y="-230"/>
      <point x="121" y="-146" type="curve" smooth="yes"/>
      <point x="121" y="-141" type="line" smooth="yes"/>
      <point x="121" y="-81"/>
      <point x="93" y="-53"/>
      <point x="56" y="-53" type="curve" smooth="yes"/>
      <point x="28" y="-53"/>
      <point x="5" y="-71"/>
      <point x="5" y="-102" type="curve" smooth="yes"/>
      <point x="5" y="-133"/>
      <point x="26" y="-149"/>
      <point x="52" y="-149" type="curve" smooth="yes"/>
      <point x="75" y="-149"/>
      <point x="88" y="-137"/>
      <point x="95" y="-124" type="curve"/>
      <point x="79" y="-119" type="line"/>
      <point x="79" y="-148" type="line" smooth="yes"/>
      <point x="79" y="-203"/>
      <point x="53" y="-234"/>
      <point x="9" y="-234" type="curve" smooth="yes"/>
      <point x="0" y="-234" type="line"/>
    </contour>
  </outline>
</glyph>
<glyph name="currency.tnum" format="2">
  <advance width="640"/>
  <outline>
    <contour>
      <point x="320" y="152" type="curve" smooth="yes"/>
      <point x="454" y="152"/>
      <point x="531" y="257"/>
      <point x="531" y="362" type="curve" smooth="yes"/>
      <point x="531" y="376" type="line" smooth="yes"/>
      <point x="531" y="484"/>
      <point x="454" y="587"/>
      <point x="320" y="587" type="curve" smooth="yes"/>
      <point x="186" y="587"/>
      <point x="109" y="484"/>
      <point x="109" y="376" type="curve" smooth="yes"/>
      <point x="109" y="362" type="line" smooth="yes"/>
      <point x="109" y="257"/>
      <point x="186" y="152"/>
    </contour>
    <contour>
      <point x="98" y="106" type="line"/>
      <point x="198" y="205" type="line"/>
      <point x="156" y="248" type="line"/>
      <point x="56" y="148" type="line"/>
    </contour>
    <contour>
      <point x="156" y="491" type="line"/>
      <point x="198" y="533" type="line"/>
      <point x="98" y="632" type="line"/>
      <point x="56" y="590" type="line"/>
    </contour>
    <contour>
      <point x="320" y="211" type="curve" smooth="yes"/>
      <point x="229" y="211"/>
      <point x="172" y="280"/>
      <point x="172" y="369" type="curve" smooth="yes"/>
      <point x="172" y="461"/>
      <point x="230" y="528"/>
      <point x="320" y="528" type="curve" smooth="yes"/>
      <point x="411" y="528"/>
      <point x="468" y="461"/>
      <point x="468" y="369" type="curve" smooth="yes"/>
      <point x="468" y="280"/>
      <point x="412" y="211"/>
    </contour>
    <contour>
      <point x="543" y="106" type="line"/>
      <point x="585" y="148" type="line"/>
      <point x="484" y="248" type="line"/>
      <point x="442" y="205" type="line"/>
    </contour>
    <contour>
      <point x="484" y="491" type="line"/>
      <point x="585" y="590" type="line"/>
      <point x="543" y="632" type="line"/>
      <point x="442" y="533" type="line"/>
    </contour>
  </outline>
</glyph>
<glyph name="divide.tnum" format="2">
  <advance width="640"/>
  <outline>
    <contour>
      <point x="92" y="316" type="line"/>
      <point x="549" y="316" type="line"/>
      <point x="549" y="373" type="line"/>
      <point x="92" y="373" type="line"/>
    </contour>
    <contour>
      <point x="279" y="104" type="line"/>
      <point x="362" y="104" type="line"/>
      <point x="362" y="194" type="line"/>
      <point x="279" y="194" type="line"/>
    </contour>
    <contour>
      <point x="279" y="495" type="line"/>
      <point x="362" y="495" type="line"/>
      <point x="362" y="585" type="line"/>
      <point x="279" y="585" type="line"/>
    </contour>
  </outline>
</glyph>
<glyph name="eight.tnum" format="2">
  <advance width="640"/>
  <outline>
    <contour>
      <point x="320" y="-17" type="curve" smooth="yes"/>
      <point x="478" y="-17"/>
      <point x="580" y="76"/>
      <point x="580" y="200" type="curve" smooth="yes"/>
      <point x="580" y="295"/>
      <point x="514" y="363"/>
      <point x="437" y="386" type="curve"/>
      <point x="437" y="396" type="line"/>
      <point x="498" y="419"/>
      <point x="555" y="471"/>
      <point x="555" y="556" type="curve" smooth="yes"/>
      <point x="555" y="674"/>
      <point x="454" y="748"/>
      <point x="320" y="748" type="curve" smooth="yes"/>
      <point x="186" y="748"/>
      <point x="86" y="674"/>
      <point x="86" y="556" type="curve" smooth="yes"/>
      <point x="86" y="471"/>
      <point x="142" y="419"/>
      <point x="203" y="396" type="curve"/>
      <point x="203" y="386" type="line"/>
      <point x="127" y="363"/>
      <point x="60" y="295"/>
      <point x="60" y="200" type="curve" smooth="yes"/>
      <point x="60" y="76"/>
      <point x="163" y="-17"/>
    </contour>
    <contour>
      <point x="320" y="44" type="curve" smooth="yes"/>
      <point x="199" y="44"/>
      <point x="129" y="110"/>
      <point x="129" y="203" type="curve" smooth="yes"/>
      <point x="129" y="296"/>
      <point x="199" y="362"/>
      <point x="320" y="362" type="curve" smooth="yes"/>
      <point x="441" y="362"/>
      <point x="511" y="296"/>
      <point x="511" y="203" type="curve" smooth="yes"/>
      <point x="511" y="110"/>
      <point x="441" y="44"/>
    </contour>
    <contour>
      <point x="320" y="418" type="curve" smooth="yes"/>
      <point x="222" y="418"/>
      <point x="154" y="465"/>
      <point x="154" y="554" type="curve" smooth="yes"/>
      <point x="154" y="640"/>
      <point x="220" y="687"/>
      <point x="320" y="687" type="curve" smooth="yes"/>
      <point x="420" y="687"/>
      <point x="486" y="640"/>
      <point x="486" y="554" type="curve" smooth="yes"/>
      <point x="486" y="465"/>
      <point x="418" y="418"/>
    </contour>
  </outline>
</glyph>
<glyph name="equal.tnum" format="2">
  <advance width="640"/>
  <outline>
    <contour>
      <point x="95" y="388" type="line"/>
      <point x="546" y="388" type="line"/>
      <point x="546" y="445" type="line"/>
      <point x="95" y="445" type="line"/>
    </contour>
    <contour>
      <point x="95" y="219" type="line"/>
      <point x="546" y="219" type="line"/>
      <point x="546" y="275" type="line"/>
      <point x="95" y="275" type="line"/>
    </contour>
  </outline>
</glyph>
<glyph name="euro.tnum" format="2">
  <advance width="640"/>
  <outline>
    <contour>
      <point x="386" y="-13" type="curve" smooth="yes"/>
      <point x="545" y="-13"/>
      <point x="615" y="74"/>
      <point x="621" y="196" type="curve"/>
      <point x="558" y="196" type="line"/>
      <point x="553" y="108"/>
      <point x="500" y="48"/>
      <point x="386" y="48" type="curve" smooth="yes"/>
      <point x="246" y="48"/>
      <point x="167" y="143"/>
      <point x="167" y="365" type="curve" smooth="yes"/>
      <point x="167" y="587"/>
      <point x="240" y="682"/>
      <point x="377" y="682" type="curve" smooth="yes"/>
      <point x="488" y="682"/>
      <point x="545" y="622"/>
      <point x="551" y="534" type="curve"/>
      <point x="614" y="534" type="line"/>
      <point x="608" y="654"/>
      <point x="534" y="743"/>
      <point x="377" y="743" type="curve" smooth="yes"/>
      <point x="197" y="743"/>
      <point x="103" y="616"/>
      <point x="103" y="372" type="curve" smooth="yes"/>
      <point x="103" y="358" type="line" smooth="yes"/>
      <point x="103" y="115"/>
      <point x="202" y="-13"/>
    </contour>
    <contour>
      <point x="12" y="258" type="line"/>
      <point x="448" y="258" type="line"/>
      <point x="448" y="308" type="line"/>
      <point x="12" y="308" type="line"/>
    </contour>
    <contour>
      <point x="30" y="404" type="line"/>
      <point x="466" y="404" type="line"/>
      <point x="466" y="454" type="line"/>
      <point x="30" y="454" type="line"/>
    </contour>
  </outline>
</glyph>
<glyph name="f_f_i" format="2">
  <advance width="990"/>
  <outline>
    <contour>
      <point x="113" y="0" type="line"/>
      <point x="181" y="0" type="line"/>
      <point x="181" y="596" type="line" smooth="yes"/>
      <point x="181" y="650"/>
      <point x="212" y="682"/>
      <point x="269" y="682" type="curve" smooth="yes"/>
      <point x="340" y="682" type="line"/>
      <point x="340" y="742" type="line"/>
      <point x="282" y="742" type="line" smooth="yes"/>
      <point x="170" y="742"/>
      <point x="113" y="691"/>
      <point x="113" y="582" type="curve" smooth="yes"/>
    </contour>
    <contour>
      <point x="451" y="0" type="line"/>
      <point x="519" y="0" type="line"/>
      <point x="519" y="590" type="line" smooth="yes"/>
      <point x="519" y="644"/>
      <point x="549" y="676"/>
      <point x="607" y="676" type="curve" smooth="yes"/>
      <point x="681" y="676" type="line"/>
      <point x="681" y="736" type="line"/>
      <point x="620" y="736" type="line" smooth="yes"/>
      <point x="508" y="736"/>
      <point x="451" y="685"/>
      <point x="451" y="576" type="curve" smooth="yes"/>
    </contour>
    <contour>
      <point x="819" y="0" type="line"/>
      <point x="889" y="0" type="line"/>
      <point x="889" y="528" type="line"/>
      <point x="819" y="528" type="line"/>
    </contour>
    <contour>
      <point x="35" y="474" type="line"/>
      <point x="680" y="474" type="line"/>
      <point x="680" y="528" type="line"/>
      <point x="35" y="528" type="line"/>
    </contour>
    <contour>
      <point x="736" y="471" type="line"/>
      <point x="889" y="471" type="line"/>
      <point x="889" y="528" type="line"/>
      <point x="736" y="528" type="line"/>
    </contour>
    <contour>
      <point x="833" y="629" type="curve" smooth="yes"/>
      <point x="867" y="629"/>
      <point x="884" y="649"/>
      <point x="884" y="678" type="curve" smooth="yes"/>
      <point x="884" y="706"/>
      <point x="867" y="727"/>
      <point x="833" y="727" type="curve" smooth="yes"/>
      <point x="798" y="727"/>
      <point x="782" y="706"/>
      <point x="782" y="678" type="curve" smooth="yes"/>
      <point x="782" y="649"/>
      <point x="798" y="629"/>
    </contour>
  </outline>
</glyph>
<glyph name="f_f_i.salt" format="2">
  <advance width="988"/>
  <outline>
    <contour>
      <point x="116" y="0" type="line"/>
      <point x="183" y="0" type="line"/>
      <point x="183" y="622" type="line" smooth="yes"/>
      <point x="183" y="659"/>
      <point x="203" y="685"/>
      <point x="242" y="685" type="curve" smooth="yes"/>
      <point x="277" y="685"/>
      <point x="301" y="659"/>
      <point x="301" y="622" type="curve"/>
      <point x="358" y="622" type="line"/>
      <point x="358" y="690"/>
      <point x="317" y="741"/>
      <point x="240" y="741" type="curve" smooth="yes"/>
      <point x="161" y="741"/>
      <point x="116" y="690"/>
      <point x="116" y="621" type="curve" smooth="yes"/>
    </contour>
    <contour>
      <point x="459" y="0" type="line"/>
      <point x="527" y="0" type="line"/>
      <point x="527" y="628" type="line" smooth="yes"/>
      <point x="527" y="665"/>
      <point x="549" y="691"/>
      <point x="588" y="691" type="curve" smooth="yes"/>
      <point x="626" y="691"/>
      <point x="651" y="665"/>
      <point x="651" y="628" type="curve"/>
      <point x="709" y="628" type="line"/>
      <point x="709" y="696"/>
      <point x="666" y="747"/>
      <point x="587" y="747" type="curve" smooth="yes"/>
      <point x="506" y="747"/>
      <point x="459" y="696"/>
      <point x="459" y="626" type="curve" smooth="yes"/>
    </contour>
    <contour>
      <point x="818" y="0" type="line"/>
      <point x="888" y="0" type="line"/>
      <point x="888" y="528" type="line"/>
      <point x="818" y="528" type="line"/>
    </contour>
    <contour>
      <point x="37" y="474" type="line"/>
      <point x="677" y="474" type="line"/>
      <point x="677" y="528" type="line"/>
      <point x="37" y="528" type="line"/>
    </contour>
    <contour>
      <point x="735" y="471" type="line"/>
      <point x="888" y="471" type="line"/>
      <point x="888" y="528" type="line"/>
      <point x="735" y="528" type="line"/>
    </contour>
    <contour>
      <point x="832" y="629" type="curve" smooth="yes"/>
      <point x="867" y="629"/>
      <point x="884" y="649"/>
      <point x="884" y="678" type="curve" smooth="yes"/>
      <point x="884" y="706"/>
      <point x="867" y="727"/>
      <point x="832" y="727" type="curve" smooth="yes"/>
      <point x="798" y="727"/>
      <point x="781" y="706"/>
      <point x="781" y="678" type="curve" smooth="yes"/>
      <point x="781" y="649"/>
      <point x="798" y="629"/>
    </contour>
  </outline>
</glyph>
<glyph name="f_f_j" format="2">
  <advance width="994"/>
  <outline>
    <contour>
      <point x="113" y="0" type="line"/>
      <point x="181" y="0" type="line"/>
      <point x="181" y="596" type="line" smooth="yes"/>
      <point x="181" y="650"/>
      <point x="212" y="682"/>
      <point x="269" y="682" type="curve" smooth="yes"/>
      <point x="341" y="682" type="line"/>
      <point x="341" y="742" type="line"/>
      <point x="282" y="742" type="line" smooth="yes"/>
      <point x="170" y="742"/>
      <point x="113" y="691"/>
      <point x="113" y="582" type="curve" smooth="yes"/>
    </contour>
    <contour>
      <point x="451" y="0" type="line"/>
      <point x="519" y="0" type="line"/>
      <point x="519" y="590" type="line" smooth="yes"/>
      <point x="519" y="644"/>
      <point x="549" y="676"/>
      <point x="607" y="676" type="curve" smooth="yes"/>
      <point x="680" y="676" type="line"/>
      <point x="680" y="736" type="line"/>
      <point x="620" y="736" type="line" smooth="yes"/>
      <point x="508" y="736"/>
      <point x="451" y="685"/>
      <point x="451" y="576" type="curve" smooth="yes"/>
    </contour>
    <contour>
      <point x="684" y="-201" type="line"/>
      <point x="734" y="-201" type="line" smooth="yes"/>
      <point x="850" y="-201"/>
      <point x="895" y="-157"/>
      <point x="895" y="-35" type="curve" smooth="yes"/>
      <point x="895" y="528" type="line"/>
      <point x="827" y="528" type="line"/>
      <point x="827" y="-49" type="line" smooth="yes"/>
      <point x="827" y="-107"/>
      <point x="799" y="-138"/>
      <point x="747" y="-138" type="curve" smooth="yes"/>
      <point x="684" y="-138" type="line"/>
    </contour>
    <contour>
      <point x="35" y="474" type="line"/>
      <point x="687" y="474" type="line"/>
      <point x="687" y="528" type="line"/>
      <point x="35" y="528" type="line"/>
    </contour>
    <contour>
      <point x="744" y="471" type="line"/>
      <point x="895" y="471" type="line"/>
      <point x="895" y="528" type="line"/>
      <point x="744" y="528" type="line"/>
    </contour>
    <contour>
      <point x="839" y="638" type="curve" smooth="yes"/>
      <point x="873" y="638"/>
      <point x="890" y="658"/>
      <point x="890" y="687" type="curve" smooth="yes"/>
      <point x="890" y="715"/>
      <point x="873" y="736"/>
      <point x="839" y="736" type="curve" smooth="yes"/>
      <point x="804" y="736"/>
      <point x="787" y="715"/>
      <point x="787" y="687" type="curve" smooth="yes"/>
      <point x="787" y="658"/>
      <point x="804" y="638"/>
    </contour>
  </outline>
</glyph>
<glyph name="f_f_j.salt" format="2">
  <advance width="994"/>
  <outline>
    <contour>
      <point x="116" y="0" type="line"/>
      <point x="183" y="0" type="line"/>
      <point x="183" y="625" type="line" smooth="yes"/>
      <point x="183" y="660"/>
      <point x="204" y="685"/>
      <point x="242" y="685" type="curve" smooth="yes"/>
      <point x="277" y="685"/>
      <point x="301" y="660"/>
      <point x="301" y="625" type="curve"/>
      <point x="358" y="625" type="line"/>
      <point x="358" y="693"/>
      <point x="317" y="741"/>
      <point x="240" y="741" type="curve" smooth="yes"/>
      <point x="161" y="741"/>
      <point x="116" y="693"/>
      <point x="116" y="623" type="curve" smooth="yes"/>
    </contour>
    <contour>
      <point x="459" y="0" type="line"/>
      <point x="527" y="0" type="line"/>
      <point x="527" y="628" type="line" smooth="yes"/>
      <point x="527" y="665"/>
      <point x="548" y="691"/>
      <point x="588" y="691" type="curve" smooth="yes"/>
      <point x="625" y="691"/>
      <point x="650" y="665"/>
      <point x="650" y="628" type="curve"/>
      <point x="707" y="628" type="line"/>
      <point x="707" y="696"/>
      <point x="665" y="747"/>
      <point x="587" y="747" type="curve" smooth="yes"/>
      <point x="506" y="747"/>
      <point x="459" y="696"/>
      <point x="459" y="626" type="curve" smooth="yes"/>
    </contour>
    <contour>
      <point x="684" y="-201" type="line"/>
      <point x="734" y="-201" type="line" smooth="yes"/>
      <point x="850" y="-201"/>
      <point x="895" y="-157"/>
      <point x="895" y="-35" type="curve" smooth="yes"/>
      <point x="895" y="528" type="line"/>
      <point x="827" y="528" type="line"/>
      <point x="827" y="-49" type="line" smooth="yes"/>
      <point x="827" y="-107"/>
      <point x="799" y="-138"/>
      <point x="747" y="-138" type="curve" smooth="yes"/>
      <point x="684" y="-138" type="line"/>
    </contour>
    <contour>
      <point x="37" y="474" type="line"/>
      <point x="687" y="474" type="line"/>
      <point x="687" y="528" type="line"/>
      <point x="37" y="528" type="line"/>
    </contour>
    <contour>
      <point x="746" y="471" type="line"/>
      <point x="895" y="471" type="line"/>
      <point x="895" y="528" type="line"/>
      <point x="746" y="528" type="line"/>
    </contour>
    <contour>
      <point x="839" y="638" type="curve" smooth="yes"/>
      <point x="873" y="638"/>
      <point x="890" y="658"/>
      <point x="890" y="687" type="curve" smooth="yes"/>
      <point x="890" y="715"/>
      <point x="873" y="736"/>
      <point x="839" y="736" type="curve" smooth="yes"/>
      <point x="804" y="736"/>
      <point x="787" y="715"/>
      <point x="787" y="687" type="curve" smooth="yes"/>
      <point x="787" y="658"/>
      <point x="804" y="638"/>
    </contour>
  </outline>
</glyph>
<glyph name="f_f_l.salt" format="2">
  <advance width="994"/>
  <outline>
    <contour>
      <point x="116" y="0" type="line"/>
      <point x="183" y="0" type="line"/>
      <point x="183" y="621" type="line" smooth="yes"/>
      <point x="183" y="658"/>
      <point x="203" y="685"/>
      <point x="242" y="685" type="curve" smooth="yes"/>
      <point x="278" y="685"/>
      <point x="301" y="658"/>
      <point x="301" y="621" type="curve"/>
      <point x="358" y="621" type="line"/>
      <point x="358" y="689"/>
      <point x="317" y="741"/>
      <point x="240" y="741" type="curve" smooth="yes"/>
      <point x="161" y="741"/>
      <point x="116" y="689"/>
      <point x="116" y="620" type="curve" smooth="yes"/>
    </contour>
    <contour>
      <point x="459" y="0" type="line"/>
      <point x="527" y="0" type="line"/>
      <point x="527" y="626" type="line" smooth="yes"/>
      <point x="527" y="664"/>
      <point x="546" y="691"/>
      <point x="586" y="691" type="curve" smooth="yes"/>
      <point x="623" y="691"/>
      <point x="646" y="664"/>
      <point x="646" y="626" type="curve"/>
      <point x="703" y="626" type="line"/>
      <point x="703" y="695"/>
      <point x="663" y="747"/>
      <point x="585" y="747" type="curve" smooth="yes"/>
      <point x="504" y="747"/>
      <point x="459" y="695"/>
      <point x="459" y="625" type="curve" smooth="yes"/>
    </contour>
    <contour>
      <point x="900" y="-6" type="curve" smooth="yes"/>
      <point x="952" y="-6" type="line"/>
      <point x="952" y="55" type="line"/>
      <point x="895" y="55" type="line" smooth="yes"/>
      <point x="866" y="55"/>
      <point x="852" y="69"/>
      <point x="852" y="101" type="curve" smooth="yes"/>
      <point x="852" y="730" type="line"/>
      <point x="782" y="730" type="line"/>
      <point x="782" y="105" type="line" smooth="yes"/>
      <point x="782" y="24"/>
      <point x="828" y="-6"/>
    </contour>
    <contour>
      <point x="37" y="467" type="line"/>
      <point x="687" y="467" type="line"/>
      <point x="687" y="522" type="line"/>
      <point x="37" y="522" type="line"/>
    </contour>
  </outline>
</glyph>
<glyph name="f_j.salt" format="2">
  <advance width="651"/>
  <outline>
    <contour>
      <point x="116" y="0" type="line"/>
      <point x="183" y="0" type="line"/>
      <point x="183" y="625" type="line" smooth="yes"/>
      <point x="183" y="662"/>
      <point x="205" y="688"/>
      <point x="245" y="688" type="curve" smooth="yes"/>
      <point x="282" y="688"/>
      <point x="307" y="662"/>
      <point x="307" y="625" type="curve"/>
      <point x="364" y="625" type="line"/>
      <point x="364" y="693"/>
      <point x="322" y="744"/>
      <point x="243" y="744" type="curve" smooth="yes"/>
      <point x="162" y="744"/>
      <point x="116" y="693"/>
      <point x="116" y="623" type="curve" smooth="yes"/>
    </contour>
    <contour>
      <point x="341" y="-201" type="line"/>
      <point x="390" y="-201" type="line" smooth="yes"/>
      <point x="507" y="-201"/>
      <point x="552" y="-157"/>
      <point x="552" y="-35" type="curve" smooth="yes"/>
      <point x="552" y="528" type="line"/>
      <point x="484" y="528" type="line"/>
      <point x="484" y="-49" type="line" smooth="yes"/>
      <point x="484" y="-107"/>
      <point x="455" y="-138"/>
      <point x="403" y="-138" type="curve" smooth="yes"/>
      <point x="341" y="-138" type="line"/>
    </contour>
    <contour>
      <point x="37" y="474" type="line"/>
      <point x="342" y="474" type="line"/>
      <point x="342" y="528" type="line"/>
      <point x="37" y="528" type="line"/>
    </contour>
    <contour>
      <point x="403" y="471" type="line"/>
      <point x="552" y="471" type="line"/>
      <point x="552" y="528" type="line"/>
      <point x="403" y="528" type="line"/>
    </contour>
    <contour>
      <point x="495" y="638" type="curve" smooth="yes"/>
      <point x="530" y="638"/>
      <point x="547" y="658"/>
      <point x="547" y="687" type="curve" smooth="yes"/>
      <point x="547" y="715"/>
      <point x="530" y="736"/>
      <point x="495" y="736" type="curve" smooth="yes"/>
      <point x="461" y="736"/>
      <point x="444" y="715"/>
      <point x="444" y="687" type="curve" smooth="yes"/>
      <point x="444" y="658"/>
      <point x="461" y="638"/>
    </contour>
  </outline>
</glyph>
<glyph name="fl.salt" format="2">
  <advance width="651"/>
  <outline>
    <contour>
      <point x="116" y="0" type="line"/>
      <point x="183" y="0" type="line"/>
      <point x="183" y="625" type="line" smooth="yes"/>
      <point x="183" y="662"/>
      <point x="203" y="688"/>
      <point x="243" y="688" type="curve" smooth="yes"/>
      <point x="279" y="688"/>
      <point x="303" y="662"/>
      <point x="303" y="625" type="curve"/>
      <point x="360" y="625" type="line"/>
      <point x="360" y="693"/>
      <point x="319" y="744"/>
      <point x="241" y="744" type="curve" smooth="yes"/>
      <point x="161" y="744"/>
      <point x="116" y="693"/>
      <point x="116" y="623" type="curve" smooth="yes"/>
    </contour>
    <contour>
      <point x="37" y="467" type="line"/>
      <point x="344" y="467" type="line"/>
      <point x="344" y="522" type="line"/>
      <point x="37" y="522" type="line"/>
    </contour>
    <contour>
      <point x="556" y="-6" type="curve" smooth="yes"/>
      <point x="609" y="-6" type="line"/>
      <point x="609" y="55" type="line"/>
      <point x="551" y="55" type="line" smooth="yes"/>
      <point x="523" y="55"/>
      <point x="509" y="69"/>
      <point x="509" y="101" type="curve" smooth="yes"/>
      <point x="509" y="730" type="line"/>
      <point x="439" y="730" type="line"/>
      <point x="439" y="105" type="line" smooth="yes"/>
      <point x="439" y="24"/>
      <point x="485" y="-6"/>
    </contour>
  </outline>
</glyph>
<glyph name="macroncomb.case" format="2">
  <anchor x="153" y="730" name="_top"/>
  <anchor x="153" y="940" name="top"/>
  <outline>
    <contour>
      <point x="0" y="843" type="line"/>
      <point x="306" y="843" type="line"/>
      <point x="306" y="895" type="line"/>
      <point x="0" y="895" type="line"/>
    </contour>
  </outline>
</glyph>
<glyph name="minus.tnum" format="2">
  <advance width="640"/>
  <outline>
    <contour>
      <point x="92" y="316" type="line"/>
      <point x="549" y="316" type="line"/>
      <point x="549" y="372" type="line"/>
      <point x="92" y="372" type="line"/>
    </contour>
  </outline>
</glyph>
<glyph name="ogonekcomb.case" format="2">
  <anchor x="215" y="10" name="_ogonek"/>
  <outline>
    <contour>
      <point x="177" y="-250" type="curve" smooth="yes"/>
      <point x="197" y="-250"/>
      <point x="214" y="-246"/>
      <point x="229" y="-241" type="curve"/>
      <point x="229" y="-188" type="line"/>
      <point x="214" y="-194"/>
      <point x="195" y="-197"/>
      <point x="180" y="-197" type="curve" smooth="yes"/>
      <point x="141" y="-197"/>
      <point x="117" y="-172"/>
      <point x="117" y="-134" type="curve" smooth="yes"/>
      <point x="117" y="-94"/>
      <point x="141" y="-55"/>
      <point x="187" y="-21" type="curve" smooth="yes"/>
      <point x="215" y="0" type="line"/>
      <point x="190" y="35" type="line"/>
      <point x="162" y="15" type="line" smooth="yes"/>
      <point x="103" y="-28"/>
      <point x="64" y="-79"/>
      <point x="64" y="-140" type="curve" smooth="yes"/>
      <point x="64" y="-206"/>
      <point x="111" y="-250"/>
    </contour>
  </outline>
</glyph>
<glyph name="one.tnum" format="2">
  <advance width="640"/>
  <outline>
    <contour>
      <point x="306" y="0" type="line"/>
      <point x="376" y="0" type="line"/>
      <point x="376" y="730" type="line"/>
      <point x="143" y="730" type="line"/>
      <point x="143" y="669" type="line"/>
      <point x="336" y="669" type="line"/>
      <point x="306" y="693" type="line"/>
    </contour>
    <contour>
      <point x="139" y="0" type="line"/>
      <point x="536" y="0" type="line"/>
      <point x="536" y="61" type="line"/>
      <point x="139" y="61" type="line"/>
    </contour>
  </outline>
</glyph>
<glyph name="r.salt" format="2">
  <advance width="422"/>
  <note>
r / design an alternative version with a round hook. Look at lettera (based on Olivetti Candia)
</note>
  <anchor x="134" y="0" name="bottom"/>
  <anchor x="242" y="528" name="top"/>
  <outline>
    <contour>
      <point x="99" y="0" type="line"/>
      <point x="169" y="0" type="line"/>
      <point x="169" y="353" type="line" smooth="yes"/>
      <point x="169" y="430"/>
      <point x="209" y="470"/>
      <point x="286" y="470" type="curve" smooth="yes"/>
      <point x="404" y="470" type="line"/>
      <point x="404" y="534" type="line"/>
      <point x="303" y="534" type="line" smooth="yes"/>
      <point x="199" y="534"/>
      <point x="148" y="471"/>
      <point x="148" y="363" type="curve"/>
      <point x="153" y="363" type="line"/>
      <point x="153" y="528" type="line"/>
      <point x="99" y="528" type="line"/>
    </contour>
  </outline>
</glyph>
<glyph name="ringcomb.case" format="2">
  <anchor x="113" y="730" name="_top"/>
  <anchor x="113" y="952" name="top"/>
  <outline>
    <contour>
      <point x="113" y="773" type="curve" smooth="yes"/>
      <point x="184" y="773"/>
      <point x="227" y="822"/>
      <point x="227" y="878" type="curve" smooth="yes"/>
      <point x="227" y="934"/>
      <point x="184" y="982"/>
      <point x="113" y="982" type="curve" smooth="yes"/>
      <point x="42" y="982"/>
      <point x="0" y="934"/>
      <point x="0" y="878" type="curve" smooth="yes"/>
      <point x="0" y="822"/>
      <point x="42" y="773"/>
    </contour>
    <contour>
      <point x="113" y="814" type="curve" smooth="yes"/>
      <point x="68" y="814"/>
      <point x="45" y="843"/>
      <point x="45" y="878" type="curve" smooth="yes"/>
      <point x="45" y="913"/>
      <point x="68" y="941"/>
      <point x="113" y="941" type="curve" smooth="yes"/>
      <point x="158" y="941"/>
      <point x="182" y="913"/>
      <point x="182" y="878" type="curve" smooth="yes"/>
      <point x="182" y="843"/>
      <point x="158" y="814"/>
    </contour>
  </outline>
</glyph>
<glyph name="six.tnum" format="2">
  <advance width="640"/>
  <outline>
    <contour>
      <point x="339" y="-18" type="curve" smooth="yes"/>
      <point x="502" y="-18"/>
      <point x="588" y="91"/>
      <point x="588" y="228" type="curve" smooth="yes"/>
      <point x="588" y="364"/>
      <point x="506" y="470"/>
      <point x="346" y="470" type="curve" smooth="yes"/>
      <point x="204" y="470"/>
      <point x="121" y="374"/>
      <point x="119" y="231" type="curve"/>
      <point x="139" y="231" type="line"/>
      <point x="139" y="361" type="line" smooth="yes"/>
      <point x="139" y="560"/>
      <point x="210" y="674"/>
      <point x="399" y="674" type="curve" smooth="yes"/>
      <point x="442" y="674"/>
      <point x="479" y="671"/>
      <point x="520" y="665" type="curve"/>
      <point x="520" y="726" type="line"/>
      <point x="479" y="732"/>
      <point x="446" y="735"/>
      <point x="402" y="735" type="curve" smooth="yes"/>
      <point x="186" y="735"/>
      <point x="75" y="604"/>
      <point x="75" y="370" type="curve" smooth="yes"/>
      <point x="75" y="329" type="line" smooth="yes"/>
      <point x="75" y="121"/>
      <point x="150" y="-18"/>
    </contour>
    <contour>
      <point x="339" y="44" type="curve" smooth="yes"/>
      <point x="210" y="44"/>
      <point x="154" y="130"/>
      <point x="154" y="227" type="curve" smooth="yes"/>
      <point x="154" y="336"/>
      <point x="226" y="410"/>
      <point x="340" y="410" type="curve" smooth="yes"/>
      <point x="463" y="410"/>
      <point x="520" y="335"/>
      <point x="520" y="228" type="curve" smooth="yes"/>
      <point x="520" y="127"/>
      <point x="455" y="44"/>
    </contour>
  </outline>
</glyph>
<glyph name="sora.tnum" format="2">
  <advance width="640"/>
  <outline>
    <contour>
      <point x="70" y="-6" type="line"/>
      <point x="318" y="436" type="line"/>
      <point x="285" y="428" type="line"/>
      <point x="354" y="428" type="line"/>
      <point x="321" y="436" type="line"/>
      <point x="568" y="-6" type="line"/>
      <point x="627" y="27" type="line"/>
      <point x="365" y="489" type="line"/>
      <point x="276" y="489" type="line"/>
      <point x="14" y="27" type="line"/>
    </contour>
    <contour>
      <point x="36" y="489" type="line"/>
      <point x="604" y="489" type="line"/>
      <point x="604" y="542" type="line"/>
      <point x="36" y="542" type="line"/>
    </contour>
    <contour>
      <point x="287" y="526" type="line"/>
      <point x="353" y="526" type="line"/>
      <point x="353" y="689" type="line"/>
      <point x="287" y="689" type="line"/>
    </contour>
    <contour>
      <point x="36" y="677" type="line"/>
      <point x="604" y="677" type="line"/>
      <point x="604" y="730" type="line"/>
      <point x="36" y="730" type="line"/>
    </contour>
  </outline>
</glyph>
<glyph name="sterling.tnum" format="2">
  <advance width="640"/>
  <outline>
    <contour>
      <point x="154" y="0" type="line"/>
      <point x="218" y="0" type="line"/>
      <point x="218" y="489" type="line" smooth="yes"/>
      <point x="218" y="628"/>
      <point x="288" y="676"/>
      <point x="382" y="676" type="curve" smooth="yes"/>
      <point x="425" y="676"/>
      <point x="499" y="671"/>
      <point x="538" y="664" type="curve"/>
      <point x="538" y="725" type="line"/>
      <point x="500" y="731"/>
      <point x="428" y="737"/>
      <point x="385" y="737" type="curve" smooth="yes"/>
      <point x="240" y="737"/>
      <point x="154" y="651"/>
      <point x="154" y="493" type="curve" smooth="yes"/>
    </contour>
    <contour>
      <point x="72" y="0" type="line"/>
      <point x="559" y="0" type="line"/>
      <point x="559" y="57" type="line"/>
      <point x="72" y="57" type="line"/>
    </contour>
    <contour>
      <point x="78" y="323" type="line"/>
      <point x="463" y="323" type="line"/>
      <point x="463" y="373" type="line"/>
      <point x="78" y="373" type="line"/>
    </contour>
    <contour>
      <point x="524" y="0" type="line"/>
      <point x="585" y="0" type="line"/>
      <point x="585" y="162" type="line"/>
      <point x="524" y="162" type="line"/>
    </contour>
  </outline>
</glyph>
<glyph name="t.salt" format="2">
  <advance width="459"/>
  <anchor x="263" y="0" name="bottom"/>
  <anchor x="194" y="290" name="center"/>
  <anchor x="250" y="482" name="top"/>
  <anchor x="193" y="576" name="topright"/>
  <outline>
    <contour>
      <point x="268" y="-14" type="curve" smooth="yes"/>
      <point x="361" y="-14"/>
      <point x="421" y="45"/>
      <point x="421" y="142" type="curve"/>
      <point x="363" y="142" type="line"/>
      <point x="363" y="74"/>
      <point x="323" y="45"/>
      <point x="272" y="45" type="curve" smooth="yes"/>
      <point x="222" y="45"/>
      <point x="183" y="74"/>
      <point x="183" y="142" type="curve" smooth="yes"/>
      <point x="183" y="497" type="line"/>
      <point x="115" y="497" type="line"/>
      <point x="115" y="146" type="line" smooth="yes"/>
      <point x="115" y="43"/>
      <point x="178" y="-14"/>
    </contour>
    <contour>
      <point x="20" y="474" type="line"/>
      <point x="394" y="474" type="line"/>
      <point x="394" y="528" type="line"/>
      <point x="20" y="528" type="line"/>
    </contour>
    <contour>
      <point x="115" y="505" type="line"/>
      <point x="183" y="505" type="line"/>
      <point x="183" y="694" type="line"/>
      <point x="115" y="694" type="line"/>
    </contour>
  </outline>
</glyph>
<glyph name="three.tnum" format="2">
  <advance width="640"/>
  <outline>
    <contour>
      <point x="319" y="-17" type="curve" smooth="yes"/>
      <point x="476" y="-17"/>
      <point x="566" y="88"/>
      <point x="566" y="205" type="curve" smooth="yes"/>
      <point x="566" y="218" type="line" smooth="yes"/>
      <point x="566" y="338"/>
      <point x="475" y="438"/>
      <point x="320" y="438" type="curve" smooth="yes"/>
      <point x="284" y="438"/>
      <point x="247" y="429"/>
      <point x="224" y="417" type="curve"/>
      <point x="270" y="416" type="line"/>
      <point x="535" y="627" type="line"/>
      <point x="535" y="730" type="line"/>
      <point x="100" y="730" type="line"/>
      <point x="100" y="669" type="line"/>
      <point x="468" y="669" type="line"/>
      <point x="476" y="654" type="line"/>
      <point x="183" y="420" type="line"/>
      <point x="224" y="356" type="line"/>
      <point x="249" y="372"/>
      <point x="280" y="382"/>
      <point x="320" y="382" type="curve" smooth="yes"/>
      <point x="428" y="382"/>
      <point x="497" y="314"/>
      <point x="497" y="212" type="curve" smooth="yes"/>
      <point x="497" y="111"/>
      <point x="427" y="45"/>
      <point x="319" y="45" type="curve" smooth="yes"/>
      <point x="208" y="45"/>
      <point x="140" y="111"/>
      <point x="140" y="214" type="curve"/>
      <point x="71" y="214" type="line"/>
      <point x="71" y="86"/>
      <point x="161" y="-17"/>
    </contour>
  </outline>
</glyph>
<glyph name="tildecomb.case" format="2">
  <anchor x="164" y="730" name="_top"/>
  <anchor x="164" y="940" name="top"/>
  <outline>
    <contour>
      <point x="240" y="819" type="curve" smooth="yes"/>
      <point x="283" y="819"/>
      <point x="318" y="841"/>
      <point x="338" y="871" type="curve"/>
      <point x="318" y="914" type="line"/>
      <point x="300" y="887"/>
      <point x="271" y="872"/>
      <point x="241" y="872" type="curve" smooth="yes"/>
      <point x="185" y="872"/>
      <point x="165" y="919"/>
      <point x="99" y="919" type="curve" smooth="yes"/>
      <point x="54" y="919"/>
      <point x="18" y="898"/>
      <point x="0" y="867" type="curve"/>
      <point x="20" y="825" type="line"/>
      <point x="37" y="852"/>
      <point x="67" y="867"/>
      <point x="97" y="867" type="curve" smooth="yes"/>
      <point x="153" y="867"/>
      <point x="173" y="819"/>
    </contour>
  </outline>
</glyph>
<glyph name="two.tnum" format="2">
  <advance width="640"/>
  <outline>
    <contour>
      <point x="101" y="0" type="line"/>
      <point x="579" y="0" type="line"/>
      <point x="579" y="61" type="line"/>
      <point x="150" y="61" type="line"/>
      <point x="171" y="27" type="line"/>
      <point x="171" y="116" type="line" smooth="yes"/>
      <point x="171" y="168"/>
      <point x="189" y="195"/>
      <point x="260" y="229" type="curve" smooth="yes"/>
      <point x="404" y="297" type="line" smooth="yes"/>
      <point x="503" y="343"/>
      <point x="565" y="410"/>
      <point x="565" y="514" type="curve" smooth="yes"/>
      <point x="565" y="527" type="line" smooth="yes"/>
      <point x="565" y="648"/>
      <point x="484" y="749"/>
      <point x="330" y="749" type="curve" smooth="yes"/>
      <point x="176" y="749"/>
      <point x="94" y="649"/>
      <point x="94" y="519" type="curve"/>
      <point x="163" y="519" type="line"/>
      <point x="163" y="624"/>
      <point x="227" y="687"/>
      <point x="330" y="687" type="curve" smooth="yes"/>
      <point x="434" y="687"/>
      <point x="497" y="624"/>
      <point x="497" y="520" type="curve" smooth="yes"/>
      <point x="497" y="436"/>
      <point x="453" y="386"/>
      <point x="381" y="352" type="curve" smooth="yes"/>
      <point x="237" y="284" type="line" smooth="yes"/>
      <point x="133" y="236"/>
      <point x="101" y="193"/>
      <point x="101" y="109" type="curve" smooth="yes"/>
    </contour>
  </outline>
</glyph>
<glyph name="u.salt" format="2">
  <advance width="615"/>
  <anchor x="308" y="0" name="bottom"/>
  <anchor x="411" y="13" name="ogonek"/>
  <anchor x="308" y="528" name="top"/>
  <anchor x="597" y="528" name="topright"/>
  <outline>
    <contour>
      <point x="308" y="-17" type="curve" smooth="yes"/>
      <point x="439" y="-17"/>
      <point x="528" y="65"/>
      <point x="528" y="213" type="curve" smooth="yes"/>
      <point x="528" y="528" type="line"/>
      <point x="458" y="528" type="line"/>
      <point x="458" y="201" type="line" smooth="yes"/>
      <point x="458" y="103"/>
      <point x="403" y="47"/>
      <point x="308" y="47" type="curve" smooth="yes"/>
      <point x="212" y="47"/>
      <point x="157" y="103"/>
      <point x="157" y="201" type="curve" smooth="yes"/>
      <point x="157" y="528" type="line"/>
      <point x="87" y="528" type="line"/>
      <point x="87" y="213" type="line" smooth="yes"/>
      <point x="87" y="65"/>
      <point x="176" y="-17"/>
    </contour>
  </outline>
</glyph>
<glyph name="yen.tnum" format="2">
  <advance width="640"/>
  <outline>
    <contour>
      <point x="267" y="312" type="line"/>
      <point x="386" y="312" type="line"/>
      <point x="591" y="730" type="line"/>
      <point x="521" y="730" type="line"/>
      <point x="339" y="353" type="line"/>
      <point x="373" y="360" type="line"/>
      <point x="284" y="360" type="line"/>
      <point x="317" y="353" type="line"/>
      <point x="124" y="730" type="line"/>
      <point x="49" y="730" type="line"/>
    </contour>
    <contour>
      <point x="293" y="0" type="line"/>
      <point x="359" y="0" type="line"/>
      <point x="359" y="327" type="line"/>
      <point x="293" y="327" type="line"/>
    </contour>
    <contour>
      <point x="81" y="163" type="line"/>
      <point x="571" y="163" type="line"/>
      <point x="571" y="214" type="line"/>
      <point x="81" y="214" type="line"/>
    </contour>
    <contour>
      <point x="81" y="310" type="line"/>
      <point x="571" y="310" type="line"/>
      <point x="571" y="360" type="line"/>
      <point x="81" y="360" type="line"/>
    </contour>
  </outline>
</glyph>
